<svg xmlns="http://www.w3.org/2000/svg" viewBox="0 0 396.88 276.5">
    <defs>
        <style>
            .cls-1,
            .cls-2 {
                fill: #ffb657;
            }

            .cls-1 {
                fill-opacity: 0.18;
            }

            .cls-3 {
                fill: #231f20;
            }

            .cls-4 {
                fill: #fff;
            }
        </style>
    </defs>
    <g id="Layer_2" data-name="Layer 2">
        <g id="Layer_1-2" data-name="Layer 1">
            <path class="cls-1"
                d="M381,274.84c2.28-4.58,16-33.2,3.85-62.59-9.25-22.38-28.12-32.19-36.71-36.48-32.9-16.47-49.29.59-81.36-5.78C210,158.72,213.42,95.83,147.6,76.36c-9.6-2.84-42.13-11.93-75.24,4.32C47.37,92.94,34.28,114,30,121c-38.51,62.77-2.44,147,.38,153.37Z" />
            <path class="cls-2"
                d="M0,224.11a26.19,26.19,0,0,1,4.17,2.59c5.17,3.94,5.7,7.48,10.57,10a15.75,15.75,0,0,0,4.79,1.58,16.77,16.77,0,0,0,8.28-.79s4.84-10.44-14.64-16.14l-.84,3.21-1.46-2.67a11.72,11.72,0,0,0-4.24-.47A12,12,0,0,0,0,224.11Z" />
            <path class="cls-2"
                d="M8.07,187.61a22.41,22.41,0,0,0,5.76,10.11c2.91,2.84,5,3.06,9.32,7.24,2.32,2.23,3.86,3.74,5,6.21A16.15,16.15,0,0,1,29,221a31.73,31.73,0,0,1-16.06-7.52l2.17-3.67-3.7,2A31.08,31.08,0,0,1,8.07,187.61Z" />
            <path class="cls-2"
                d="M34.78,205.39c-14.64-3.9-19.43-19.47-19.43-19.47.47-.79,7.09-2.44,7.09-2.44l-8.56-1.6s-1.5-2.44-.38-7.6-2.09-12.53-2.09-12.53A49,49,0,0,1,25,167.82c4.45,2.88,11.19,7.23,13.65,15.21a19.66,19.66,0,0,1,.81,4l-3.14,4,3.29-1.4A30.75,30.75,0,0,1,34.78,205.39Z" />
            <path class="cls-2"
                d="M47.47,214.2s-11.61-24.26,21.6-31.58c0,0-3.81,3.88-3.58,11.79s-2.18,9.1-2.18,9.1l-6.09-1.09,4.83,4.83S55.09,215.63,47.47,214.2Z" />
            <path class="cls-2"
                d="M68.14,223s-21.76-8.48-21.78,11c0,0,6.72,6.63,13.73-2.63l-1.6-3.75,3,.77S65.87,223.54,68.14,223Z" />
            <path class="cls-3"
                d="M37.39,252.81h0a.41.41,0,0,1-.32-.48c4.34-22.49,23.09-27.78,23.28-27.83a.41.41,0,1,1,.21.79c-.18.05-18.45,5.22-22.69,27.2A.4.4,0,0,1,37.39,252.81Z" />
            <path class="cls-3"
                d="M36.8,257.17a.4.4,0,0,1-.35-.45A146.66,146.66,0,0,1,58.1,193.49a.4.4,0,0,1,.56-.13.42.42,0,0,1,.13.57A145.73,145.73,0,0,0,37.26,256.8a.41.41,0,0,1-.45.37Z" />
            <path class="cls-3"
                d="M35.46,266.1h0a.41.41,0,0,1-.32-.48,138.86,138.86,0,0,0,1.07-50.38,138.31,138.31,0,0,0-8.83-30.88.41.41,0,0,1,.76-.31A139.77,139.77,0,0,1,37,215.1a139.78,139.78,0,0,1-1.08,50.67A.4.4,0,0,1,35.46,266.1Z" />
            <path class="cls-3"
                d="M36.52,259a.41.41,0,0,1-.35-.44c.74-10.76-.08-31-13.88-46A47.93,47.93,0,0,0,15,206.17a.41.41,0,1,1,.48-.66A49,49,0,0,1,22.89,212c14,15.17,14.84,35.71,14.09,46.6a.4.4,0,0,1-.43.38Z" />
            <path class="cls-3"
                d="M38.56,259.28a.4.4,0,0,1-.35-.34,38.85,38.85,0,0,0-10.06-20.52,38.63,38.63,0,0,0-14-9.37.41.41,0,1,1,.29-.76,39.54,39.54,0,0,1,14.27,9.57A39.55,39.55,0,0,1,39,258.81a.41.41,0,0,1-.34.47A.2.2,0,0,1,38.56,259.28Z" />
            <path class="cls-3" d="M21.37,254.69l3.95,20.15H49.16l3.94-20.15Zm26.86,19h-22l-3.5-17.91h29Z" />
            <polygon class="cls-4" points="51.74 255.81 48.23 273.72 26.24 273.72 22.74 255.81 51.74 255.81" />
            <path class="cls-2"
                d="M53.32,254.69H21.16a1,1,0,0,1-1-.73l-1.34-4.57a1,1,0,0,1,1-1.3H54.66a1,1,0,0,1,1,1.3L54.3,254A1,1,0,0,1,53.32,254.69Z" />
            <path class="cls-3" d="M395.88,275.84H18.23a1,1,0,0,1,0-2H395.88a1,1,0,0,1,0,2Z" />
            <path class="cls-3"
                d="M298.49,7.32V142.49a5.33,5.33,0,0,1-5.33,5.32H132.81a5.33,5.33,0,0,1-5.33-5.32V7.32A5.33,5.33,0,0,1,132.81,2H293.16A5.33,5.33,0,0,1,298.49,7.32Z" />
            <path class="cls-3"
                d="M291.16,0H130.81a5.33,5.33,0,0,0-5.33,5.32V140.49a5.33,5.33,0,0,0,5.33,5.32H291.16a5.33,5.33,0,0,0,5.33-5.32V5.32A5.33,5.33,0,0,0,291.16,0Zm4.33,140.49a4.33,4.33,0,0,1-4.33,4.32H130.81a4.33,4.33,0,0,1-4.33-4.32V12.88h169Zm0-128.61h-169V5.32A4.33,4.33,0,0,1,130.81,1H291.16a4.33,4.33,0,0,1,4.33,4.32Z" />
            <path class="cls-4"
                d="M295.49,5.32v6.56h-169V5.32A4.33,4.33,0,0,1,130.81,1H291.16A4.33,4.33,0,0,1,295.49,5.32Z" />
            <path class="cls-4"
                d="M295.49,12.88V140.49a4.33,4.33,0,0,1-4.33,4.32H130.81a4.33,4.33,0,0,1-4.33-4.32V12.88Z" />
            <path class="cls-3"
                d="M169.57,24.26v8.1a25.08,25.08,0,0,0-19.23,9c-2.08-1.71-4.15-3.44-6.23-5.17l0,0A33.17,33.17,0,0,1,169.57,24.26Z" />
            <path class="cls-4"
                d="M169.57,90.24a32.72,32.72,0,0,1-25.4-53.37l1.05.87,4.41,3.66A25.63,25.63,0,1,0,195.2,58h7.1A32.77,32.77,0,0,1,169.57,90.24Z" />
            <path class="cls-3"
                d="M144.25,37.58l.64.53,4.05,3.36a26.13,26.13,0,1,0,46.75,17h6.1a32.24,32.24,0,1,1-57.54-20.92m-.14-1.42a33.23,33.23,0,1,0,58.7,21.34h-8.1a25.14,25.14,0,1,1-44.37-16.17c-2.08-1.71-4.15-3.44-6.23-5.17Z" />
            <path class="cls-2"
                d="M202.81,57.5h-8.1a25.17,25.17,0,0,0-25.14-25.14v-8.1A33.28,33.28,0,0,1,202.81,57.5Z" />
            <path class="cls-3"
                d="M232.21,85.26a.62.62,0,0,1,.62.62V98.5a.62.62,0,0,1-.62.62H219.59a.62.62,0,0,1-.62-.62V85.88a.62.62,0,0,1,.62-.62h12.62m0-1H219.59A1.63,1.63,0,0,0,218,85.88V98.5a1.63,1.63,0,0,0,1.62,1.62h12.62a1.63,1.63,0,0,0,1.62-1.62V85.88a1.63,1.63,0,0,0-1.62-1.62Z" />
            <rect class="cls-3" x="243.24" y="95" width="40.59" height="4.29" rx="2.14" />
            <rect class="cls-3" x="243.24" y="85" width="40.59" height="4.29" rx="2.14" />
            <rect class="cls-3" x="217.97" y="54.26" width="15.86" height="15.86" rx="1.62" />
            <rect class="cls-3" x="243.24" y="65" width="40.59" height="4.29" rx="2.14" />
            <rect class="cls-3" x="243.24" y="55" width="40.59" height="4.29" rx="2.14" />
            <rect class="cls-2" x="217.97" y="24.26" width="15.86" height="15.86" rx="1.62" />
            <rect class="cls-3" x="243.24" y="35" width="40.59" height="4.29" rx="2.14" />
            <rect class="cls-3" x="243.24" y="25" width="40.59" height="4.29" rx="2.14" />
            <rect class="cls-2" x="138.26" y="110.73" width="145.57" height="25.72" rx="2.32" />
            <path class="cls-4"
                d="M205.16,103.63v5.57H62v-5.57a2.41,2.41,0,0,1,2.4-2.4h138.4A2.41,2.41,0,0,1,205.16,103.63Z" />
            <path class="cls-3"
                d="M208.16,105.63V173.4a3.41,3.41,0,0,1-3.4,3.41H66.36A3.41,3.41,0,0,1,63,173.4V105.63a3.4,3.4,0,0,1,3.4-3.4h138.4A3.4,3.4,0,0,1,208.16,105.63Z" />
            <path class="cls-4" d="M205.16,110.2v61.2a2.41,2.41,0,0,1-2.4,2.41H64.36A2.41,2.41,0,0,1,62,171.4V110.2Z" />
            <path class="cls-3"
                d="M202.76,100.23H64.36a3.4,3.4,0,0,0-3.4,3.4V171.4a3.41,3.41,0,0,0,3.4,3.41h138.4a3.41,3.41,0,0,0,3.4-3.41V103.63A3.4,3.4,0,0,0,202.76,100.23Zm2.4,71.17a2.41,2.41,0,0,1-2.4,2.41H64.36A2.41,2.41,0,0,1,62,171.4V110.2h143.2Zm0-62.2H62v-5.57a2.41,2.41,0,0,1,2.4-2.4h138.4a2.41,2.41,0,0,1,2.4,2.4Z" />
            <path class="cls-4"
                d="M205.16,103.63v5.57H62v-5.57a2.41,2.41,0,0,1,2.4-2.4h138.4A2.41,2.41,0,0,1,205.16,103.63Z" />
            <rect class="cls-3" x="173.18" y="132.34" width="12.23" height="32.71" />
            <rect class="cls-2" x="143.18" y="145.39" width="12.23" height="19.66" />
            <rect class="cls-3" x="113.18" y="125.74" width="12.23" height="39.31" />
            <rect class="cls-2" x="83.18" y="147.21" width="12.23" height="17.84" />
            <path class="cls-3"
                d="M196.48,165.55H70.19a.5.5,0,0,1-.5-.5V118.16a.51.51,0,0,1,.5-.5.5.5,0,0,1,.5.5v46.39H196.48a.5.5,0,0,1,0,1Z" />
            <path class="cls-4"
                d="M338.53,71.19c.07,5,.48,6.23,1.39,7.21a6.44,6.44,0,0,0,4.24,1.87A7.48,7.48,0,0,0,348.87,79a.55.55,0,1,1,.62.9,8.57,8.57,0,0,1-4.22,1.44l-.14,2.4a8.65,8.65,0,0,0,5,1.88,8.77,8.77,0,0,0,5.53-1.71,17.4,17.4,0,0,1,.34-5.68,7.38,7.38,0,0,1-1.16-1.62,8,8,0,0,1-.92-4.19l-.08,0h-.1a.55.55,0,0,1-.1-1.08,2.33,2.33,0,0,0,1.48-.89c.5-.73.62-2,0-2.42a1.69,1.69,0,0,0-1.75,0,.55.55,0,1,1-.5-1,2.86,2.86,0,0,1,.41-.15c.48-1.66.46-2.82-.06-3.35s-1.26-.36-2.87-.09c-.66.12-1.4.25-2.24.34-2,.23-6.21.46-9.26-.83C338.62,65.76,338.51,68.5,338.53,71.19Z" />
            <path class="cls-3"
                d="M337,60.3a4.55,4.55,0,0,0,1.25,1.18l.64.37c2.93,1.45,7.5,1.12,9.11.94.81-.08,1.53-.21,2.17-.32,1.72-.3,2.95-.52,3.85.39s.92,2.07.46,3.91a2.19,2.19,0,0,1,1.32.45c1.15.87,1.05,2.73.23,3.9a3.14,3.14,0,0,1-1,.9,7.11,7.11,0,0,0,.75,4.11,10.17,10.17,0,0,0,.57.88c.05-.14.08-.28.12-.41A17.33,17.33,0,0,1,359,72.08c1.12-1.55,2-2.77,2.12-4.94,0-.8.15-2.93-1.26-4.29a3.89,3.89,0,0,0-1.67-1,.55.55,0,0,1-.38-.4,10.5,10.5,0,0,0-3-5.16c-3.05-2.8-6.89-2.67-9.2-2.6-3.13.1-8.62,1-9.33,3.78A3.77,3.77,0,0,0,337,60.3Z" />
            <path class="cls-3"
                d="M337,60.3a4.55,4.55,0,0,0,1.25,1.18l.64.37c2.93,1.45,7.5,1.12,9.11.94.81-.08,1.53-.21,2.17-.32,1.72-.3,2.95-.52,3.85.39s.92,2.07.46,3.91a2.19,2.19,0,0,1,1.32.45c1.15.87,1.05,2.73.23,3.9a3.14,3.14,0,0,1-1,.9,7.11,7.11,0,0,0,.75,4.11,10.17,10.17,0,0,0,.57.88c.05-.14.08-.28.12-.41A17.33,17.33,0,0,1,359,72.08c1.12-1.55,2-2.77,2.12-4.94,0-.8.15-2.93-1.26-4.29a3.89,3.89,0,0,0-1.67-1,.55.55,0,0,1-.38-.4,10.5,10.5,0,0,0-3-5.16c-3.05-2.8-6.89-2.67-9.2-2.6-3.13.1-8.62,1-9.33,3.78A3.77,3.77,0,0,0,337,60.3Z" />
            <path class="cls-2"
                d="M346.25,155.31h1.84a.54.54,0,0,1,.55.55v.74a32.91,32.91,0,0,1,26.52,6.78A65.4,65.4,0,0,0,374,148.11C364.89,150.9,355.61,153.31,346.25,155.31Z" />
            <path class="cls-2"
                d="M314.47,140.32h0l2.25,10.59,3.15-1.44,7.43-3.77a2.31,2.31,0,0,0,.84-.74,2.13,2.13,0,0,0,.25-.5,1.69,1.69,0,0,0,.12-.55l1.69-18.42a.59.59,0,0,1,.06-.2.4.4,0,0,1,.13-.16.55.55,0,0,1,.4-.13.59.59,0,0,1,.19,0h0a.81.81,0,0,1,.14.12.59.59,0,0,1,.1.17l0,.08a.49.49,0,0,1,0,.17L329.6,144a3,3,0,0,1-.06.43,3.28,3.28,0,0,1-.5,1.15,3,3,0,0,1-.55.62,3,3,0,0,1-.69.48l-4.3,2.17,3.17.3c1.36.15,2.66.29,4,.45l-.59-1.84a.19.19,0,0,1,0-.08.54.54,0,0,1,.33-.58l32.08-13a1.52,1.52,0,0,0,.6-.42,1.71,1.71,0,0,0,.4-.86.53.53,0,0,0,0-.13,2.14,2.14,0,0,0,0-.36l-2.07-14.47v-.07a.57.57,0,0,1,.13-.36.49.49,0,0,1,.15-.13.43.43,0,0,1,.2-.07.51.51,0,0,1,.41.13.58.58,0,0,1,.19.33l2.09,14.47a2.81,2.81,0,0,1-.23,1.58,2.92,2.92,0,0,1-1.46,1.38L335,146.4l2.84,9.48h0a328.81,328.81,0,0,0,37.83-9.44c1.69-.53,3.36-1.07,5-1.62a2.75,2.75,0,0,0,.36-.15,2.13,2.13,0,0,0,.61-.46,2.05,2.05,0,0,0,.5-.77.5.5,0,0,0,.08-.2,2.22,2.22,0,0,0,.12-1c-.36-3.57-.73-7.16-1.14-10.74s-.88-7.16-1.35-10.71c-1.11-8.2-2.43-16.49-3.92-24.64a1.47,1.47,0,0,0-.06-.27,2,2,0,0,0-.21-.5,2.8,2.8,0,0,0-.92-1,56.3,56.3,0,0,0-9.07-4.82A57,57,0,0,0,357,86.72a11.14,11.14,0,0,1-13,0,51.74,51.74,0,0,0-5.54,2.31,53.71,53.71,0,0,0-6.55,3.74,2.62,2.62,0,0,0-.84.88,2.67,2.67,0,0,0-.2.46,1.37,1.37,0,0,0-.07.24c-.27,1.1-.54,2.2-.8,3.31-.8,3.32-1.55,6.67-2.24,10-1.86,8.9-3.42,18-4.63,27a2.54,2.54,0,0,1-.17.63,2.93,2.93,0,0,1-.31.58,1.64,1.64,0,0,1-.21.25,2.85,2.85,0,0,1-.78.6Zm20.7-33.49a.54.54,0,0,1,.54-.54h7.87a.54.54,0,0,1,.54.54v5a4.48,4.48,0,1,1-8.95,0Z" />
            <path class="cls-3"
                d="M335.17,106.83v5a4.48,4.48,0,1,0,8.95,0v-5a.54.54,0,0,0-.54-.54h-7.87A.54.54,0,0,0,335.17,106.83Zm1.09.55H343v4.42a3.39,3.39,0,1,1-6.77,0Z" />
            <path class="cls-3"
                d="M345.33,76.09a.41.41,0,0,1,.18.8,3,3,0,0,1-.73.08,3.55,3.55,0,0,1-.79-.09,3.33,3.33,0,0,1-1.7-1.07.41.41,0,1,1,.62-.53,2.53,2.53,0,0,0,1.28.8A2.44,2.44,0,0,0,345.33,76.09Z" />
            <path class="cls-3"
                d="M344.94,69.08a.4.4,0,0,1,.15.56c-.62,1.06-.63,2-.29,2.31a.63.63,0,0,0,.39.14.41.41,0,0,1,0,.82h0a1.54,1.54,0,0,1-.87-.34c-.7-.63-.65-2,.13-3.34A.41.41,0,0,1,344.94,69.08Z" />
            <circle class="cls-3" cx="341.54" cy="66.61" r="1.06" />
            <circle class="cls-3" cx="348.72" cy="66.85" r="1.06" />
            <path class="cls-3"
                d="M285.21,142.15a3.37,3.37,0,0,0,.07.69,4.72,4.72,0,0,0,1.6,2.64,4.65,4.65,0,0,0,2.95,1.13,3.15,3.15,0,0,0,3.19-3.86,4.62,4.62,0,0,0-1.6-2.65c-1.76-1.5-4.23-1.5-5.47,0A3.13,3.13,0,0,0,285.21,142.15Zm1.57-1.36a2.15,2.15,0,0,1,1.69-.73,3.55,3.55,0,0,1,2.25.87,3.6,3.6,0,0,1,1.22,2,2.17,2.17,0,0,1-.41,1.85c-.87,1-2.64,1-3.94-.15a3.53,3.53,0,0,1-1.23-2A2.13,2.13,0,0,1,286.78,140.79Z" />
            <path class="cls-3"
                d="M296.92,160.38a13.77,13.77,0,0,0-4.68,3.89,15.05,15.05,0,0,0-2.08,3.93,26.93,26.93,0,0,0-.76,4.11,10.78,10.78,0,0,0-5.82,4.85,10.9,10.9,0,0,0-1.14,7.63l1.43,3.36H273.71a.54.54,0,0,0-.55.55v6.53a.55.55,0,0,0,.55.55h13.41l.19.45c-1,14.09-2,32.87-3.08,55.09a.11.11,0,0,0,0,.06.22.22,0,0,0,0,.08c-.08,1.33-.13,2.66-.19,4a.55.55,0,0,0,.14.4.63.63,0,0,0,.37.17l2.81.09-.38,5.7a2.11,2.11,0,0,0-2.07.65,24.78,24.78,0,0,1-14.62,8,2.13,2.13,0,0,0-1.79,2l-.13,2.71a.46.46,0,0,0,.16.39.52.52,0,0,0,.39.18h32.79a.57.57,0,0,0,.55-.55V264a2,2,0,0,0-.78-1.58,2,2,0,0,0-1.73-.36l-.67.14.3-5.72,3,.1h0a.55.55,0,0,0,.54-.46l.58-3.67h0l2.1-13.18L311,251.84a.36.36,0,0,0,0,.11h0l0,0,1.43,3.36a.45.45,0,0,0,.31.29.46.46,0,0,0,.2.05.36.36,0,0,0,.22-.07l1.34-.64,1.08,3a2.12,2.12,0,0,0-.7.84,39.13,39.13,0,0,1-8.78,11.83,3.18,3.18,0,0,0-.46,4.13l.79,1.16.22.32a.52.52,0,0,0,.7.17l.94-.48,24.17-12.44a2.07,2.07,0,0,0,1.08-1.34,2.1,2.1,0,0,0-.25-1.71L329.24,254a2.32,2.32,0,0,0-1.6-1,2.19,2.19,0,0,0-1.51.3.25.25,0,0,0,0-.09L325,249.89l1.68-.82a.53.53,0,0,0,.29-.61l-.83-3.49a.11.11,0,0,0,0-.05l-11.69-49.14h66.95a.55.55,0,0,0,.55-.55V188.7a.54.54,0,0,0-.55-.55h-18A21,21,0,0,0,366.7,186c5.36-4.22,7.88-10.57,8.94-16.94a.51.51,0,0,0,.05-.25c.23-1.42.39-2.83.48-4.22a.56.56,0,0,0,0-.22A65.92,65.92,0,0,0,375,147.78c.33-.09.65-.18,1-.29q2.57-.8,5.05-1.64a3.56,3.56,0,0,0,2.44-3.71c-.7-7.15-1.54-14.37-2.5-21.48-1.12-8.22-2.43-16.52-3.92-24.69a3.76,3.76,0,0,0-1.68-2.5,55.61,55.61,0,0,0-9.26-4.94,61.07,61.07,0,0,0-8.77-2.85l-.63-1.6a16,16,0,0,1,.61-6.66c0-.15.1-.3.15-.45a16.26,16.26,0,0,1,2.42-4.24,9.48,9.48,0,0,0,2.34-5.54c0-.85.18-3.42-1.6-5.12a5,5,0,0,0-1.82-1.13,11.47,11.47,0,0,0-3.22-5.41c-3.38-3.1-7.67-3-10-2.88-1.54.05-9.31.53-10.36,4.6a4.77,4.77,0,0,0,.78,3.66,5.5,5.5,0,0,0,1.7,1.59q-.3,3.51-.32,7c0,.56,0,1.13,0,1.69.07,4.82.45,6.59,1.69,8a7.49,7.49,0,0,0,4.94,2.21h.12L344,84l-.38,1.77A59.55,59.55,0,0,0,338,88.08a56.23,56.23,0,0,0-6.67,3.8,3.74,3.74,0,0,0-1.57,2.24c-1.09,4.4-2.12,8.88-3.05,13.32-1.86,8.93-3.43,18-4.64,27.08a1.55,1.55,0,0,1-.87,1.21l-7,3.48-3.44-16.14a.55.55,0,0,0-.54-.43l-31.77-.36h-1.6l-2.07,0h-1.92l-10.9-.14a.66.66,0,0,0-.43.2.6.6,0,0,0-.11.45L268.36,160a.53.53,0,0,0,.54.43Zm21.59-1.1-.61-2.87h14.88l.31,1a.56.56,0,0,0,.53.39h.08c2.42-.42,4.83-.88,7.23-1.35h6.62v2.87Zm18.26-3.19-1.39.25-1.4.26-.29-.94v0l-2.44-7.71,2.74-1.11Zm-18.54-.77,2.31-.46a5.16,5.16,0,0,1,2.88.28l.43.18Zm-.77-1L317,152l4.64-2.12c.77,0,1.57.08,2.39.14s1.66.12,2.5.21,1.56.17,2.32.27l1.12.15,1.1.15c.21.67.41,1.35.62,2L332,154c.13.45.27.89.42,1.34h-5.63l-3-1.19c-.18-.08-.37-.14-.55-.2a6.14,6.14,0,0,0-2.86-.15h-.08Zm-1.66-2.55,1.6,7.48h-48l-6.7-36.09,10.24.12h1.92l2.07,0h1.95l31,.34h0Zm22.74-82c0-.38,0-.77,0-1.17,0-.11,0-.23,0-.34,0-.65,0-1.31.07-2,0-.32,0-.63.05-1s0-.77.07-1.15,0-.79.07-1.19h0c3.06,1.29,7.21,1.06,9.25.83.85-.09,1.59-.22,2.25-.34,1.61-.27,2.39-.39,2.87.09s.55,1.7.06,3.35l-.42.15a.47.47,0,0,0-.12.09l-.1.12a.69.69,0,0,0-.05.13.53.53,0,0,0,0,.28s0,.08.05.13a.62.62,0,0,0,.09.12.4.4,0,0,0,.12.1l.11,0a.48.48,0,0,0,.29,0,.28.28,0,0,0,.13,0,3.76,3.76,0,0,1,.37-.16,2.74,2.74,0,0,1,.37-.08l.24,0a1.31,1.31,0,0,1,.41.06.7.7,0,0,1,.2.08.54.54,0,0,1,.16.1.12.12,0,0,1,0,0,.28.28,0,0,1,.1.09l0,0s0,0,0,.06a.77.77,0,0,1,.1.18,1.38,1.38,0,0,1,.08.29,2.49,2.49,0,0,1-.22,1.38,1.57,1.57,0,0,1-.18.31,2.13,2.13,0,0,1-.18.22,1.75,1.75,0,0,1-.41.33,1.13,1.13,0,0,1-.21.12,1.93,1.93,0,0,1-.39.15,1.67,1.67,0,0,1-.29.07.48.48,0,0,0-.18.06.58.58,0,0,0-.14.13.57.57,0,0,0,.07.77.56.56,0,0,0,.35.13h.1l0,0h0a2.62,2.62,0,0,1,0,.28c0,.19,0,.38,0,.57s0,.2,0,.3a.68.68,0,0,0,0,.14,3.62,3.62,0,0,0,.06.46,4.3,4.3,0,0,0,.09.47c0,.1.05.21.08.31a1.92,1.92,0,0,0,.09.32,4.7,4.7,0,0,0,.24.65A7.37,7.37,0,0,0,356,78.26a17.39,17.39,0,0,0-.34,5.68h0l-.17.11a.1.1,0,0,1-.05,0l-.36.23c-.15.1-.32.19-.5.29a3.54,3.54,0,0,1-.39.19,4.08,4.08,0,0,1-.42.19l-.31.12-.3.1a7.53,7.53,0,0,1-.88.25h0l-.53.09-.65.07-.55,0h-.39a8.61,8.61,0,0,1-5-1.88l.14-2.4a8.6,8.6,0,0,0,4.21-1.43l.11-.09a.6.6,0,0,0,.12-.24.53.53,0,0,0-.08-.44.54.54,0,0,0-.76-.14,3.37,3.37,0,0,1-.34.21,7.46,7.46,0,0,1-1.46.67l-.15,0-.32.1-.5.11-.65.1-.2,0-.51,0h0l-.56,0-.22,0a8.52,8.52,0,0,1-1.05-.17,5.76,5.76,0,0,1-.59-.18,6.92,6.92,0,0,1-1.07-.47,0,0,0,0,1,0,0,3.87,3.87,0,0,1-.43-.27,2.83,2.83,0,0,1-.28-.2l-.3-.26a3.83,3.83,0,0,1-.29-.28,3.36,3.36,0,0,1-.24-.29,2.18,2.18,0,0,1-.22-.31,1.83,1.83,0,0,1-.13-.24,1.69,1.69,0,0,1-.12-.27,2.09,2.09,0,0,1-.11-.3,2.58,2.58,0,0,1-.1-.33,2.66,2.66,0,0,1-.08-.33c0-.16-.07-.34-.1-.53a2.54,2.54,0,0,1,0-.29c-.07-.44-.12-1-.16-1.56,0-.11,0-.22,0-.34V73.5c0-.17,0-.36,0-.55,0-.52,0-1.11,0-1.76C338.53,70.74,338.53,70.28,338.54,69.82ZM349.71,87.7a9,9,0,0,1-1.71-.29l-.38-.11-.38-.12a9.65,9.65,0,0,1-2.51-1.29l.19-.91.44.29a8.7,8.7,0,0,0,1.06.58,9.65,9.65,0,0,0,1.29.49c.23.07.48.13.73.19a8.93,8.93,0,0,0,1.61.22h.43a9.79,9.79,0,0,0,5.46-1.7l.33.83a10.54,10.54,0,0,1-2.66,1.34l-.38.12a9.18,9.18,0,0,1-1,.23l-.55.08a10.81,10.81,0,0,1-1.53.06Zm6.67-10.8,0,.11a0,0,0,0,0,0,0,1.18,1.18,0,0,1-.13-.18h0l-.16-.23-.26-.45-.16-.32a7.57,7.57,0,0,1-.37-1h0a6.76,6.76,0,0,1-.18-.82,7.59,7.59,0,0,1-.05-2,2.8,2.8,0,0,0,.5-.37l.25-.24a3.11,3.11,0,0,0,.23-.28,3.3,3.3,0,0,0,.26-.45,1.09,1.09,0,0,0,.1-.25l.09-.25a3,3,0,0,0,.15-1.33,2.51,2.51,0,0,0,0-.27,1.46,1.46,0,0,0-.05-.2,1.61,1.61,0,0,0-.09-.29,2.1,2.1,0,0,0-.13-.26.26.26,0,0,0-.05-.09.35.35,0,0,0-.05-.08l-.05-.06a1.63,1.63,0,0,0-.17-.2,1.8,1.8,0,0,0-.2-.19,2,2,0,0,0-.62-.32,2.16,2.16,0,0,0-.71-.12c0-.17.08-.34.11-.5s.06-.32.08-.48a3.34,3.34,0,0,0,.05-.43c0-.15,0-.29,0-.43a1.21,1.21,0,0,0,0-.19c0-.07,0-.13,0-.18s0-.13,0-.18v0l0-.13a.17.17,0,0,0,0-.07.64.64,0,0,0,0-.07.15.15,0,0,0,0-.07s0,0,0,0a1.55,1.55,0,0,0-.07-.23,1.86,1.86,0,0,0-.1-.25l-.12-.23-.15-.22h0v0l-.14-.16h0c-.91-.91-2.14-.69-3.84-.39h-.09l-.71.13-.14,0-.17,0-1.06.14-.56.06c-.42,0-.93.07-1.51.09a15.83,15.83,0,0,1-7-1.08l-.65-.38a5.13,5.13,0,0,1-.69-.54c-.1-.1-.2-.19-.3-.31s-.17-.21-.26-.33a3.75,3.75,0,0,1-.62-2.78,2.41,2.41,0,0,1,.08-.25,2.69,2.69,0,0,1,.24-.48l.16-.23.18-.2.2-.2.3-.26.33-.24.36-.22h0l.12-.06.12-.06.33-.17.16-.07.48-.2h0l.56-.2.61-.18.54-.14.59-.13.6-.12L343,54h0l.41,0h.1l.45-.05a3.44,3.44,0,0,1,.45,0c.45,0,.88-.07,1.27-.08A14.08,14.08,0,0,1,352.91,55h0a5,5,0,0,1,.5.29,3.74,3.74,0,0,1,.49.32,5.1,5.1,0,0,1,.49.36l.47.41q.25.24.48.48c.2.21.39.43.56.64a10.64,10.64,0,0,1,.81,1.21,8.7,8.7,0,0,1,.51,1,10.24,10.24,0,0,1,.63,1.83.67.67,0,0,0,.07.17l0,0a.08.08,0,0,0,0,0,.56.56,0,0,0,.24.15,4,4,0,0,1,1.67,1,3.67,3.67,0,0,1,.67.88,3.55,3.55,0,0,1,.21.44,3.28,3.28,0,0,1,.17.5l.06.24a2.44,2.44,0,0,1,.06.26,2,2,0,0,1,0,.24l0,.23a7.32,7.32,0,0,1,0,1.21,2.53,2.53,0,0,1,0,.29l0,.4c0,.13,0,.25-.05.37s0,.24-.07.35,0,.24-.07.35l-.09.32c-.05.16-.11.32-.17.47s-.13.29-.2.44a6.28,6.28,0,0,1-.31.57,5.46,5.46,0,0,1-.34.55c-.12.19-.25.38-.38.56s-.26.38-.41.56l-.33.45-.67,1c-.22.35-.45.71-.67,1.11s-.42.81-.62,1.27c-.09.23-.19.47-.28.72,0,.07,0,.13-.06.21Zm-18.52,79L335,146.4l27.85-11.28a2.48,2.48,0,0,0,1-.71,2.39,2.39,0,0,0,.45-.67,2.73,2.73,0,0,0,.24-1.58l-2.08-14.47a.56.56,0,0,0-.62-.45.6.6,0,0,0-.19.06.49.49,0,0,0-.15.13.59.59,0,0,0-.13.37s0,0,0,.06l2.07,14.47a1.45,1.45,0,0,1,0,.36.66.66,0,0,1,0,.14,1.73,1.73,0,0,1-.4.85,1.52,1.52,0,0,1-.6.42l-32.08,13a.54.54,0,0,0-.33.58.19.19,0,0,0,0,.08l.59,1.84h0c-1.31-.16-2.61-.3-4-.45l-3.17-.3,4.3-2.17a3.36,3.36,0,0,0,.69-.47,3.27,3.27,0,0,0,.55-.63,3.2,3.2,0,0,0,.5-1.15,1.3,1.3,0,0,0,0-.21,1.52,1.52,0,0,0,0-.21l1.69-18.42a.29.29,0,0,0,0-.16l0-.09a.44.44,0,0,0-.1-.16.47.47,0,0,0-.15-.13h0a.59.59,0,0,0-.19,0,.55.55,0,0,0-.4.13l-.07.08-.06.08a.66.66,0,0,0-.06.2l-1.69,18.42a1.64,1.64,0,0,1-.12.55,2,2,0,0,1-.25.5,2.31,2.31,0,0,1-.84.74l-7.43,3.78-3.15,1.43-2.25-10.59h0l7.2-3.6a2.82,2.82,0,0,0,.78-.59c.07-.09.15-.17.21-.26a3.15,3.15,0,0,0,.31-.57,2.74,2.74,0,0,0,.17-.64c1.21-9,2.77-18.09,4.63-27,.69-3.32,1.44-6.67,2.24-10,.26-1.11.53-2.21.81-3.31l.06-.24a2.07,2.07,0,0,1,.2-.46,2.62,2.62,0,0,1,.84-.88,53.71,53.71,0,0,1,6.55-3.74A51.74,51.74,0,0,1,344,86.75a11.09,11.09,0,0,0,13,0,57,57,0,0,1,8.73,2.83,56.3,56.3,0,0,1,9.07,4.82,2.84,2.84,0,0,1,.92,1,1.77,1.77,0,0,1,.21.49,1.47,1.47,0,0,1,.06.27c.75,4.07,1.45,8.19,2.1,12.31s1.27,8.24,1.83,12.34q.7,5.32,1.33,10.7c.42,3.58.8,7.17,1.15,10.74a2.2,2.2,0,0,1-.12,1,.5.5,0,0,1-.08.2,2,2,0,0,1-.5.77,2.09,2.09,0,0,1-.61.46l-.36.16c-1.68.55-3.35,1.09-5,1.61A326.76,326.76,0,0,1,337.86,155.88Zm37.3,7.5a32.86,32.86,0,0,0-26.52-6.77v-.75a.51.51,0,0,0-.16-.38.55.55,0,0,0-.39-.16H346.3c9.35-2,18.62-4.4,27.69-7.19,0,.11.05.24.07.38s.06.29.09.46,0,.06,0,.09c0,.23.09.48.13.75,0,0,0,.1,0,.15s.05.3.08.45.05.32.08.49c.08.56.16,1.18.25,1.84,0,.14,0,.26,0,.4l.06.54.06.56c0,.06,0,.12,0,.19s0,.15,0,.23c0,.39.08.79.11,1.21,0,.06,0,.11,0,.18a2.26,2.26,0,0,1,0,.26.86.86,0,0,1,0,.16c0,.06,0,.13,0,.19l0,.45c0,.08,0,.15,0,.22s0,.17,0,.25v.09c0,.1,0,.2,0,.31,0,.51,0,1,0,1.57C375.23,160.78,375.22,162.07,375.16,163.38Zm-.4,4.41h0l-.43-.38-.93-.79a34,34,0,0,0-8.26-5,32.51,32.51,0,0,0-4.5-1.53c-.69-.18-1.39-.33-2.08-.46l-1.05-.19q-.66-.11-1.32-.18c-.44-.06-.88-.1-1.32-.13s-.8-.06-1.2-.07a33.87,33.87,0,0,0-5,.15v-1.52a32.26,32.26,0,0,1,13.45.38c.45.11.89.23,1.33.36s.87.27,1.31.42,1,.35,1.45.54.75.3,1.12.46c.56.25,1.12.51,1.66.79s1.08.58,1.61.89l.58.35c.26.16.53.32.79.5.57.37,1.14.77,1.69,1.19a7.47,7.47,0,0,1,.73.56q.36.27.72.57c0,.51-.08,1-.14,1.53S374.83,167.27,374.76,167.79Zm-60.58,26.89-.87-3.62.29-1.82h67.24v5.44Zm1.74,64.61a.85.85,0,0,1,.17-.25.69.69,0,0,1,.18-.16l0,0,.25-.13a1.38,1.38,0,0,1,.29-.08c.53-.08,1.05-.17,1.57-.29l.77-.19c.51-.14,1-.3,1.52-.48s.7-.27,1-.42l.13-.06,1-.48c.33-.17.65-.34,1-.53a18.91,18.91,0,0,0,1.84-1.22q.45-.33.87-.69a1,1,0,0,1,.34-.21,1,1,0,0,1,.39-.07h.19a1,1,0,0,1,.25.07,1.25,1.25,0,0,1,.59.5l4.11,6.46.06.13a1,1,0,0,1-.46,1.35l-24.69,12.71-.74-1.07a2.09,2.09,0,0,1,.3-2.71c.67-.62,1.33-1.27,2-1.94.27-.28.54-.57.8-.87s.5-.56.74-.85.53-.63.79-.95c.48-.61.95-1.23,1.39-1.87.19-.26.38-.53.56-.81s.33-.5.49-.75.49-.77.72-1.17C314.91,261.29,315.44,260.3,315.92,259.29Zm-.37-4.8,8.44-4.12h0l1.08,3.15a.47.47,0,0,0,.21.25l.1,0,0,0a18.07,18.07,0,0,1-3,1.93c-.45.23-.91.43-1.37.62-.23.1-.47.19-.71.27s-.47.17-.71.24l-.72.22c-.36.1-.73.19-1.1.26s-.74.14-1.12.2Zm-3.3-2.49,13-6.15.58,2.43-11.12,5.42-.08,0-.07,0-1.26.62Zm-.43-1L306,237.27l6.59-41.49h.73l11.65,49Zm.92-56.3.12-.75.18.75Zm-19.43,69.23c.42,0,.84,0,1.26,0a23.19,23.19,0,0,0,3.12-.28c.78-.12,1.55-.27,2.32-.46a.89.89,0,0,1,.8.17.88.88,0,0,1,.35.71V274.7H269.49l.1-2.12a1.06,1.06,0,0,1,.87-1,24.76,24.76,0,0,0,6.29-1.85,23,23,0,0,0,3-1.52c.28-.17.56-.34.83-.52s.68-.45,1-.69l1-.74.82-.68a26.39,26.39,0,0,0,2.38-2.35,1,1,0,0,1,1-.29A25.87,25.87,0,0,0,293.31,263.91ZM292,262.75l-1.16-.11-.54-.08-1.05-.17c-.4-.08-.8-.16-1.19-.26l.4-6,9.83.32-.33,6-.7.11-.34.05c-.35.05-.7.09-1,.11s-.7.06-1.05.07-.69,0-1,0h-.46C292.88,262.8,292.44,262.78,292,262.75ZM285.29,252l17.09,1-.41,2.57L285.15,255C285.19,254,285.24,253,285.29,252Zm-1-62.75,2.32,5.44h-12.4v-5.44Zm4.92-15.69c-.15,1.27-.31,2.74-.49,4.4q0,.47-.09,1c-.05.59-.11,1.2-.17,1.83,0,.45-.09.92-.13,1.4-.07.75-.13,1.54-.2,2.35-.08,1-.16,2-.24,3.08,0,.19,0,.38,0,.58,0,.36-.05.72-.08,1.09-.11,1.46-.22,3-.34,4.59l-2-4.59-.47-1.09-1.57-3.7a10.19,10.19,0,0,1-.17-2.84c0-.11,0-.23,0-.34l.06-.43q0-.3.12-.6c0-.2.1-.4.16-.6a6.08,6.08,0,0,1,.22-.64,8.91,8.91,0,0,1,.61-1.3,9.75,9.75,0,0,1,4.72-4.15Zm7.68-11.94.3-.16a6.25,6.25,0,0,1,.63-.33c.27-.14.56-.27.85-.39l.89-.35h48.56c.48-.06.95-.11,1.42-.14l1.48-.08h.17c.66,0,1.32,0,2,0a31.55,31.55,0,0,1,4.13.39c.45.07.9.15,1.35.25l.33.07c.45.09.9.19,1.34.31a32.86,32.86,0,0,1,14.2,7.92c-.09.52-.19,1-.3,1.55s-.21,1-.33,1.43-.23.85-.35,1.28c-.07.25-.15.5-.23.74a2,2,0,0,1-.08.26l-.27.76c0,.09-.06.18-.1.27s-.11.28-.17.42a3.25,3.25,0,0,1-.15.4,2.75,2.75,0,0,1-.15.36c0,.1-.09.21-.14.31l-.09.21a22.67,22.67,0,0,1-1.48,2.8,6.49,6.49,0,0,1-.36.55,9.52,9.52,0,0,1-.6.86c-.09.13-.19.26-.29.38a2.92,2.92,0,0,1-.21.28,14.65,14.65,0,0,1-1.05,1.21l-.41.43a16.72,16.72,0,0,1-1.77,1.59,20.48,20.48,0,0,1-5.2,3H313.11a.39.39,0,0,0-.18,0,.24.24,0,0,0-.11.06.23.23,0,0,0-.07.07l0,0a.31.31,0,0,0-.07.09.55.55,0,0,0-.06.18l-.1.63-.86,5.44-.18,1.1-6.28,39.6-.32,2-2.3,14.47-17.22-1c.07-1.31.13-2.61.19-3.88,0-.49,0-1,.07-1.44s0-1,.07-1.43c0-.28,0-.56,0-.83l.09-1.94c.09-1.89.19-3.75.28-5.58,0-.7.07-1.4.11-2.09q.18-3.56.36-7c0-.49.06-1,.08-1.46s.07-1.12.1-1.68q.24-4.4.48-8.48l.06-1.15c0-.28,0-.56.06-.84s0-.47,0-.69,0-.51,0-.77c0-.75.09-1.49.13-2.23,0-.31.05-.63.07-.94q.22-3.9.47-7.47c0-.22,0-.45.05-.67s0-.44,0-.66c0-.43.06-.87.09-1.29h0c0-.41,0-.81.07-1.21,0-.21,0-.42,0-.62s0-.38.05-.57h0c0-.07,0-.16,0-.23l0-.55c0-.19,0-.37,0-.55,0-.36.05-.71.07-1.06.05-.71.1-1.39.15-2.07s.11-1.56.17-2.31l.09-1.09q.27-3.45.52-6.35c0-.25.05-.5.07-.75s0-.42.05-.63c.14-1.56.28-3,.41-4.25,0-.12,0-.24.05-.36.12-1.07.23-2,.34-2.89h0a.2.2,0,0,0,0-.08s0-.06,0-.1a.28.28,0,0,0,0-.09h0c0-.12,0-.24,0-.35.06-.42.11-.81.17-1.17,0-.17.05-.33.08-.48a.59.59,0,0,1,0-.14,2.68,2.68,0,0,1,.05-.3v0a.19.19,0,0,1,0-.08c0-.26.09-.5.13-.71s.08-.32.11-.46.07-.26.11-.36.14-.38.21-.56a5,5,0,0,1,.23-.53c.09-.23.2-.44.3-.64s.32-.59.46-.84.38-.59.5-.77l.15-.21.06-.08.15-.19a5.85,5.85,0,0,1,.45-.54,6.55,6.55,0,0,1,.58-.6c.15-.15.31-.29.47-.43a2.05,2.05,0,0,1,.23-.2c.13-.11.25-.21.39-.31a3.24,3.24,0,0,1,.31-.24c.15-.11.32-.23.48-.33l.25-.16Z" />
            <polygon class="cls-4" points="274.25 189.24 274.25 194.68 286.65 194.68 284.33 189.24 274.25 189.24" />
            <polygon class="cls-4"
                points="313.31 191.06 314.18 194.68 380.84 194.68 380.84 189.24 313.6 189.24 313.31 191.06" />
            <path class="cls-4" d="M336.26,107.38v4.42a3.39,3.39,0,1,0,6.77,0v-4.42Z" />
            <path class="cls-4"
                d="M306.6,274.16l.74,1.08L332,262.53a1,1,0,0,0,.39-1.48l-4.1-6.47a1.23,1.23,0,0,0-.84-.56h-.19a1,1,0,0,0-.73.28,19.59,19.59,0,0,1-3.68,2.44,19.18,19.18,0,0,1-6.05,1.92,1.18,1.18,0,0,0-.91.64,40,40,0,0,1-4.74,7.56,42.41,42.41,0,0,1-4.28,4.61A2.07,2.07,0,0,0,306.6,274.16Z" />
            <path class="cls-4" d="M312.25,252l1,2.39,1.26-.62a.69.69,0,0,1,.15-.07l11.12-5.42-.58-2.43Z" />
            <path class="cls-4" d="M285.15,255l16.82.54.41-2.56-17.09-1C285.24,253,285.2,254,285.15,255Z" />
            <path class="cls-4" d="M288.06,262.12a24.26,24.26,0,0,0,9.9.34l.33-6-9.83-.32Z" />
            <path class="cls-4"
                d="M315.55,254.48l1.11,3.09a18.53,18.53,0,0,0,5.73-1.82,17.39,17.39,0,0,0,3-1.92h0a.54.54,0,0,1-.31-.3L324,250.37Z" />
            <path class="cls-4"
                d="M348.64,157.71v1.52a33.41,33.41,0,0,1,12,.89,33.87,33.87,0,0,1,14.12,7.67c.14-1,.24-2.06.32-3.06a31.82,31.82,0,0,0-26.44-7Z" />
            <path class="cls-4"
                d="M317.9,156.41l.61,2.88h29v-2.88h-6.62c-2.4.47-4.81.93-7.23,1.34h-.08a.56.56,0,0,1-.53-.38l-.31-1Z" />
            <path class="cls-4"
                d="M317,152l.49,2.34,2.87-.56a6.12,6.12,0,0,1,3.49.33l3,1.19h5.62c-.47-1.5-.93-3-1.4-4.5q-2.16-.31-4.53-.57c-1.69-.17-3.34-.28-4.89-.36Z" />
            <path class="cls-4" d="M331.25,147.92l2.44,7.72v0l.3.93,2.78-.5L334,146.82Z" />
            <path class="cls-4"
                d="M344.72,85.89a10,10,0,0,0,11.55,0l-.33-.83a9.8,9.8,0,0,1-5.46,1.69h-.42A9.75,9.75,0,0,1,344.92,85Z" />
            <path class="cls-4"
                d="M269.49,274.7h31.67V264a.88.88,0,0,0-.35-.71.93.93,0,0,0-.8-.18,25.41,25.41,0,0,1-13.23-.23,1,1,0,0,0-1,.3,26,26,0,0,1-15.27,8.35,1,1,0,0,0-.87,1Z" />
            <polygon class="cls-4"
                points="262.65 123.19 269.35 159.28 317.39 159.28 315.8 151.8 309.8 123.72 278.49 123.38 277.39 123.36 273.99 123.32 272.89 123.31 262.65 123.19" />
            <path class="cls-2"
                d="M286.36,142.63a3.53,3.53,0,0,0,1.23,2c1.3,1.11,3.07,1.17,3.94.15a2.17,2.17,0,0,0,.41-1.85,3.6,3.6,0,0,0-1.22-2,3.55,3.55,0,0,0-2.25-.87,2.06,2.06,0,0,0-2.11,2.57Z" />
            <polygon class="cls-3"
                points="305.98 237.27 311.82 250.98 324.95 244.77 324.95 244.75 313.3 195.78 312.56 195.78 305.98 237.27" />
            <path class="cls-3"
                d="M283.47,184.45l1.58,3.7.47,1.09,2,4.59c.12-1.6.23-3.13.34-4.59,0-.37.05-.73.07-1.09.48-6.23.94-11.16,1.36-14.6a9.72,9.72,0,0,0-4.72,4.14A9.86,9.86,0,0,0,283.47,184.45Z" />
            <path class="cls-3"
                d="M285.33,250.89l17.22,1,2.3-14.47.32-2,6.28-39.59.17-1.1.87-5.44.1-.63a.53.53,0,0,1,.52-.46h47.71a20.48,20.48,0,0,0,5.2-3c5.07-4,7.5-10,8.53-16.09a32.34,32.34,0,0,0-26.39-8.71H299.61a13.91,13.91,0,0,0-6.51,4.55,14.19,14.19,0,0,0-1.9,3.63,24.92,24.92,0,0,0-.74,4.07h0a.33.33,0,0,1,0,.27h0c-.44,3.42-.92,8.56-1.43,15.23,0,.36-.06.72-.09,1.09-.13,1.72-.26,3.54-.39,5.44,0,.36-.06.72-.08,1.1,0,.07,0,.15,0,.23h0c-.06.78-.11,1.57-.16,2.39h0C287.31,212.13,286.32,230,285.33,250.89Z" />
        </g>
    </g>
</svg>