<svg xmlns="http://www.w3.org/2000/svg" xmlns:xlink="http://www.w3.org/1999/xlink" viewBox="0 0 1837.59 825.8"><defs><style>.cls-1{fill:url(#linear-gradient);}.cls-2,.cls-4{fill:none;stroke:#231f20;stroke-miterlimit:10;}.cls-2{stroke-width:6px;}.cls-3{fill:#231f20;}.cls-4{stroke-width:3.2px;}</style><linearGradient id="linear-gradient" x1="841.65" y1="412.9" x2="1837.59" y2="412.9" gradientUnits="userSpaceOnUse"><stop offset="0" stop-color="#fff"/><stop offset="1"/></linearGradient></defs><g id="Layer_2" data-name="Layer 2"><g id="Layer_7" data-name="Layer 7"><g id="Layer_8" data-name="Layer 8"><path class="cls-1" d="M919.59,0s-8.1,27.8,10.8,41.3,148.5,93.15,90.45,131.62S852.09,285.65,842.64,377.45s50.4,120.6,105.3,134.1,101.7,5.85,149,54.45,63,104,87.75,174.6,72.45,91.35,114.75,83.7,79.65-12.15,126-92.25,87.3-110.25,146.7-99,77.4,59.4,265.5,69.3l-2-414s-59.2-40.91-69.4-69.71c-26.72-75.46,69.4-171.6,69.4-171.6V0Z"/></g><circle class="cls-2" cx="714.69" cy="258.5" r="17.7"/><path class="cls-3" d="M1243.87,203.12l75.65-45.32,10.75-6.43c5.51-3.31.49-12-5-8.64l-75.66,45.32-10.74,6.43c-5.52,3.31-.49,12,5,8.64Z"/><path class="cls-3" d="M1535.13,772.16l-58.61-56.46c-4.63-4.47-11.71,2.6-7.07,7.07l58.61,56.47c4.63,4.46,11.71-2.6,7.07-7.08Z"/><circle class="cls-2" cx="1480.74" cy="307.25" r="57.15"/><circle class="cls-2" cx="1754.12" cy="319.36" r="47.64"/><polygon class="cls-4" points="51.59 675.85 16.93 714.18 2.31 660.29 51.59 675.85"/></g></g></svg>