<svg xmlns="http://www.w3.org/2000/svg" xmlns:xlink="http://www.w3.org/1999/xlink" viewBox="0 0 1855.6 1132.14"><defs><style>.cls-1,.cls-3{fill:none;}.cls-2{clip-path:url(#clip-path);}.cls-3{stroke:#231f20;stroke-miterlimit:10;stroke-width:6px;}</style><clipPath id="clip-path" transform="translate(503.78 95.84)"><path class="cls-1" d="M865.06,283.65s-25.3-8.93-100.9,12.67-233.55,105.3-294.3,33.75S401,154.57,361.86,88.42,287.61-4.73,189.06.67,0,104.62,0,199.12,6.81,343.57,144.51,408.37s62.1,182.25,20.25,216S19,731,35.16,830.92s98.55,187.65,224.1,145.8,155.19-148.5,174.79-213.3,103.31-101.25,207.26-68.85S878,740.23,951.81,673c82.35-75,79.19-160.71,53-255C976.74,317.32,898.56,287.77,865.06,283.65Z"/></clipPath></defs><g id="Layer_2" data-name="Layer 2"><g id="Layer_3" data-name="Layer 3"><g class="cls-2"><line class="cls-3" x1="531.35" y1="1085.25" x2="1263.43" y2="346.71"/><line class="cls-3" x1="549.36" y1="1093.81" x2="1281.44" y2="355.27"/><line class="cls-3" x1="562.77" y1="1103.16" x2="1294.85" y2="364.63"/><line class="cls-3" x1="603.54" y1="1084.85" x2="1335.62" y2="346.31"/><line class="cls-3" x1="621.55" y1="1093.41" x2="1353.63" y2="354.87"/><line class="cls-3" x1="634.96" y1="1102.77" x2="1367.04" y2="364.23"/><line class="cls-3" x1="659.69" y1="1103.16" x2="1391.77" y2="364.63"/><line class="cls-3" x1="677.7" y1="1111.72" x2="1409.78" y2="373.18"/><line class="cls-3" x1="691.1" y1="1121.08" x2="1423.18" y2="382.54"/><line class="cls-3" x1="724.48" y1="1112.12" x2="1456.56" y2="373.58"/><line class="cls-3" x1="742.49" y1="1120.68" x2="1474.57" y2="382.14"/><line class="cls-3" x1="755.9" y1="1130.03" x2="1487.97" y2="391.49"/><line class="cls-3" x1="881.69" y1="1020.5" x2="1613.77" y2="281.96"/><line class="cls-3" x1="899.7" y1="1029.06" x2="1631.78" y2="290.52"/><line class="cls-3" x1="913.1" y1="1038.42" x2="1645.18" y2="299.88"/><line class="cls-3" x1="943.42" y1="1029.46" x2="1675.5" y2="290.92"/><line class="cls-3" x1="961.44" y1="1038.02" x2="1693.51" y2="299.48"/><line class="cls-3" x1="974.84" y1="1047.37" x2="1706.92" y2="308.83"/><line class="cls-3" x1="987.59" y1="1065.19" x2="1719.67" y2="326.65"/><line class="cls-3" x1="1017.92" y1="1056.24" x2="1750" y2="317.7"/><line class="cls-3" x1="1035.93" y1="1064.79" x2="1768.01" y2="326.25"/><line class="cls-3" x1="1049.33" y1="1074.15" x2="1781.41" y2="335.61"/><line class="cls-3" x1="1059.65" y1="1085.25" x2="1791.73" y2="346.71"/><line class="cls-3" x1="1089.97" y1="1076.3" x2="1822.05" y2="337.76"/><line class="cls-3" x1="1107.98" y1="1084.85" x2="1840.06" y2="346.31"/><line class="cls-3" x1="1121.39" y1="1094.21" x2="1853.47" y2="355.67"/><line class="cls-3" x1="139.84" y1="843.56" x2="871.92" y2="105.02"/><line class="cls-3" x1="157.85" y1="852.12" x2="889.93" y2="113.58"/><line class="cls-3" x1="171.25" y1="861.47" x2="903.33" y2="122.93"/><line class="cls-3" x1="212.03" y1="843.16" x2="944.11" y2="104.62"/><line class="cls-3" x1="230.04" y1="851.72" x2="962.12" y2="113.18"/><line class="cls-3" x1="243.44" y1="861.07" x2="975.52" y2="122.53"/><line class="cls-3" x1="268.17" y1="861.47" x2="1000.25" y2="122.93"/><line class="cls-3" x1="286.18" y1="870.03" x2="1018.26" y2="131.49"/><line class="cls-3" x1="299.59" y1="879.38" x2="1031.67" y2="140.84"/><line class="cls-3" x1="24.56" y1="741.05" x2="756.64" y2="2.51"/><line class="cls-3" x1="2.13" y1="742.45" x2="734.21" y2="3.91"/><line class="cls-3" x1="42.57" y1="749.61" x2="774.65" y2="11.07"/><line class="cls-3" x1="55.98" y1="758.96" x2="788.06" y2="20.42"/><line class="cls-3" x1="96.75" y1="740.65" x2="828.83" y2="2.11"/><line class="cls-3" x1="114.76" y1="749.21" x2="846.84" y2="10.67"/><line class="cls-3" x1="128.17" y1="758.56" x2="860.25" y2="20.02"/><line class="cls-3" x1="152.89" y1="758.96" x2="884.97" y2="20.42"/><line class="cls-3" x1="170.9" y1="767.52" x2="902.98" y2="28.98"/><line class="cls-3" x1="184.31" y1="776.87" x2="916.39" y2="38.34"/><line class="cls-3" x1="332.96" y1="870.43" x2="1065.04" y2="131.89"/><line class="cls-3" x1="350.98" y1="878.98" x2="1083.06" y2="140.44"/><line class="cls-3" x1="364.38" y1="888.34" x2="1096.46" y2="149.8"/><line class="cls-3" x1="310.83" y1="965.74" x2="1042.91" y2="227.2"/><line class="cls-3" x1="328.84" y1="974.3" x2="1060.92" y2="235.76"/><line class="cls-3" x1="342.24" y1="983.65" x2="1074.32" y2="245.11"/><line class="cls-3" x1="372.57" y1="974.69" x2="1104.65" y2="236.16"/><line class="cls-3" x1="390.58" y1="983.25" x2="1122.66" y2="244.71"/><line class="cls-3" x1="403.98" y1="992.61" x2="1136.06" y2="254.07"/><line class="cls-3" x1="416.74" y1="1010.43" x2="1148.82" y2="271.89"/><line class="cls-3" x1="447.06" y1="1001.47" x2="1179.14" y2="262.93"/><line class="cls-3" x1="465.07" y1="1010.03" x2="1197.15" y2="271.49"/><line class="cls-3" x1="478.47" y1="1019.38" x2="1210.55" y2="280.85"/><line class="cls-3" x1="488.79" y1="1030.49" x2="1220.87" y2="291.95"/><line class="cls-3" x1="519.12" y1="1021.53" x2="1251.2" y2="282.99"/><line class="cls-3" x1="537.13" y1="1030.09" x2="1269.21" y2="291.55"/><line class="cls-3" x1="550.53" y1="1039.44" x2="1282.61" y2="300.9"/></g></g></g></svg>