<svg xmlns="http://www.w3.org/2000/svg" viewBox="0 0 479.32 454.33">
    <defs>
        <style>
            .cls-1,
            .cls-4 {
                fill: #ffb657;
            }

            .cls-2,
            .cls-7 {
                fill: #fff;
            }

            .cls-2 {
                opacity: 0.7;
            }

            .cls-12,
            .cls-3,
            .cls-5 {
                fill: none;
            }

            .cls-10,
            .cls-11,
            .cls-12,
            .cls-14,
            .cls-3,
            .cls-4,
            .cls-5,
            .cls-6,
            .cls-7,
            .cls-8,
            .cls-9 {
                stroke: #263238;
            }

            .cls-10,
            .cls-11,
            .cls-12,
            .cls-14,
            .cls-3,
            .cls-4,
            .cls-6,
            .cls-7,
            .cls-8 {
                stroke-linecap: round;
                stroke-linejoin: round;
            }

            .cls-5,
            .cls-9 {
                stroke-miterlimit: 10;
            }

            .cls-6 {
                fill: #92e3a9;
            }

            .cls-13,
            .cls-8,
            .cls-9 {
                fill: #263238;
            }

            .cls-10 {
                fill: #999;
            }

            .cls-11 {
                fill: #bdbdbd;
            }

            .cls-12 {
                stroke-width: 0.75px;
            }

            .cls-14 {
                fill: #d4d4d4;
            }
        </style>
    </defs>
    <g id="Layer_2" data-name="Layer 2">
        <g id="Background_Simple" data-name="Background Simple">
            <path class="cls-1"
                d="M472.23,221.11c-5.1,43.2-24.83,93.42-64.22,116.5-59.52,34.87-54.54,88.5-170.72,111.81a238.8,238.8,0,0,1-51.51,4.87,198,198,0,0,1-25.28-2.06C86.66,441.44,37,390.12,18.74,328.16c-24-81.48,23.91-134.82,55.66-167s55-132.29,169-156.11a231.93,231.93,0,0,1,52.94-5c40.57,1,84.83,14.32,115.45,42.13q3.45,3.14,6.71,6.49C461.1,92.36,479.19,162.21,472.23,221.11Z" />
            <path class="cls-2"
                d="M472.23,221.11c-5.1,43.2-24.83,93.42-64.22,116.5-59.52,34.87-54.54,88.5-170.72,111.81a238.8,238.8,0,0,1-51.51,4.87,198,198,0,0,1-25.28-2.06C86.66,441.44,37,390.12,18.74,328.16c-24-81.48,23.91-134.82,55.66-167s55-132.29,169-156.11a231.93,231.93,0,0,1,52.94-5c40.57,1,84.83,14.32,115.45,42.13q3.45,3.14,6.71,6.49C461.1,92.36,479.19,162.21,472.23,221.11Z" />
        </g>
        <g id="Floor">
            <line class="cls-3" x1="339.64" y1="448.32" x2="478.82" y2="448.32" />
            <line class="cls-3" x1="19.15" y1="448.32" x2="330.52" y2="448.32" />
        </g>
        <g id="Plant">
            <path class="cls-4"
                d="M27.33,241.94s-3.43,9.44-10.72,10.73-20.16-12.87-12-20.16S23.9,236.8,27.33,241.94Z" />
            <path class="cls-4"
                d="M38.48,195.62s-10.72,26.17-6.43,39,30.88,22.3,38.6,5.58-9.44-40.32-15.87-45.46S40.63,191.33,38.48,195.62Z" />
            <path class="cls-4"
                d="M101.1,206.77S82.66,223.5,80.51,240.23s10.3,22.73,23.16,20.58,19.3-34.74,15.44-49.75S101.1,206.77,101.1,206.77Z" />
            <path class="cls-4" d="M104.53,299.41s-20.59.86-21.44,10.73,9,12,18.87,3.43S113.11,299.84,104.53,299.41Z" />
            <path class="cls-5" d="M83.43,312.49s16.22-7.43,23.53-8.71" />
            <path class="cls-4" d="M109.12,364S94,350,86.4,356.31s-2.17,14.85,10.87,15.8S114.86,370.35,109.12,364Z" />
            <path class="cls-5" d="M85,358.21s16.7,6.27,22.77,10.55" />
            <path class="cls-4" d="M29.35,359.84s20.85-19.29,31.33-10.55,3,20.48-15,21.79S21.44,368.64,29.35,359.84Z" />
            <path class="cls-5" d="M62.64,351.91s-23,8.65-31.38,14.54" />
            <path class="cls-4" d="M53.49,320s-2.14,10.29-9.86,14.15-21.45-4.28-14.16-16.72S49.63,314.85,53.49,320Z" />
            <path class="cls-4" d="M35.48,287.83s-3.86-8.57-18.87-3S-4.41,299,5,302,35.48,287.83,35.48,287.83Z" />
            <path class="cls-5" d="M32.61,287.44s-15.91,1.72-24.5,9" />
            <path class="cls-4"
                d="M78.37,184.9s2.57,6,7.72,4.72,6.43-9,14.58-6.86,15,11.58,15,7.29-10.29-15.44-21.87-15.44S78.8,179.33,78.37,184.9Z" />
            <path class="cls-5" d="M35.48,287.83s18.47-3.54,26.16,17a58.63,58.63,0,0,1,1.93,6.27" />
            <path class="cls-6" d="M112.55,268s3.86-8.58,18.87-3,21,14.16,11.58,17.16S112.55,268,112.55,268Z" />
            <path class="cls-5" d="M116,268.53s15.48-.86,22.78,8.17" />
            <path class="cls-5" d="M112.55,268a23.72,23.72,0,0,0-12.78,1.74" />
            <path class="cls-5" d="M45.32,252.58c-9-9.24-18-10.64-18-10.64S14.12,238.45,9,243.18" />
            <line class="cls-5" x1="47.16" y1="205.07" x2="46.36" y2="201.49" />
            <path class="cls-5" d="M68.05,394.68s1.92-73.86,0-96.29-10.9-48.71-10.9-48.71L48,208.87" />
            <line class="cls-5" x1="106.16" y1="220.93" x2="107.82" y2="217.39" />
            <path class="cls-5" d="M72.53,394.6s.64-67.37,3.21-86.6,12.81-49.35,12.81-49.35L104.29,225" />
            <path class="cls-5" d="M83.43,312.49s-4.49,38.62-7.05,82.2" />
            <path class="cls-5" d="M61.64,394.6s1.28-61.61-1.28-69.94S53.49,320,53.49,320s-11.86,1.4-16.16,8.27" />
            <path class="cls-5" d="M64.58,315.87c3.35,18.79.26,78.79.26,78.79" />
            <path class="cls-5" d="M96.14,271.72c-3.72,2.54-7.28,6.64-9.75,13.21-7.69,20.51-6.81,109.76-6.81,109.76" />
            <path class="cls-5" d="M47.56,255a60.52,60.52,0,0,1,10.87,19.65C68.69,304.16,72.53,380.5,70.61,394.6" />
            <path class="cls-5" d="M73.6,282.62c-.63,37.2-1.07,112-1.07,112" />
            <path class="cls-5"
                d="M73.68,278c.42-24.61.92-48.68,1.42-61.63,1.28-33.33,3.27-31.46,3.27-31.46s2.37-7.48,15.69-6.62" />
            <path class="cls-4"
                d="M57.26,306.08s-10.72-9.56-6.43-14.26,30.88-8.15,38.6-2S80,304.51,73.56,306.39,59.41,307.65,57.26,306.08Z" />
            <path class="cls-5" d="M67.17,298.25a18.81,18.81,0,0,0-.24,2.86" />
            <path class="cls-5" d="M70.85,287.09a49.18,49.18,0,0,0-2.75,7.1" />
            <path class="cls-4"
                d="M57.26,368.6S46.54,359,50.83,354.33s30.88-8.15,38.6-2S80,367,73.56,368.91,59.41,370.17,57.26,368.6Z" />
            <path class="cls-5" d="M70.85,349.61s-3.92,7.85-3.92,14" />
            <path class="cls-4"
                d="M65.25,342.16s-7.28-6.49-4.37-9.69,21-5.53,26.21-1.38-6.41,10-10.78,11.28S66.7,343.22,65.25,342.16Z" />
            <path class="cls-5" d="M74.47,329.26s-2.66,5.33-2.66,9.52" />
            <rect class="cls-7" x="55.18" y="383.96" width="29.02" height="64.36" />
        </g>
        <g id="Tab_2" data-name="Tab 2">
            <rect class="cls-8" x="263.72" y="266.29" width="99.82" height="87.75" rx="4.37" />
            <rect class="cls-7" x="260.55" y="261.54" width="99.82" height="87.75" rx="4.37" />
            <path class="cls-4"
                d="M360.37,272.63v-6.72a4.37,4.37,0,0,0-4.37-4.37H264.92a4.37,4.37,0,0,0-4.37,4.37v6.72Z" />
            <circle class="cls-7" cx="334.04" cy="267.37" r="2.67" />
            <path class="cls-7" d="M345.18,267.37A2.68,2.68,0,1,0,342.5,270,2.68,2.68,0,0,0,345.18,267.37Z" />
            <circle class="cls-7" cx="350.97" cy="267.37" r="2.67" />
            <path class="cls-5"
                d="M348,278.65H274.11a2.3,2.3,0,0,0-2.29,2.29v28l5.34-8.35H348a2.28,2.28,0,0,0,2.29-2.28V280.94A2.29,2.29,0,0,0,348,278.65Z" />
            <path class="cls-5"
                d="M274.11,313.71H348a2.29,2.29,0,0,1,2.29,2.29v28L345,335.69H274.11a2.29,2.29,0,0,1-2.29-2.28V316A2.3,2.3,0,0,1,274.11,313.71Z" />
            <circle class="cls-4" cx="285.32" cy="289.5" r="6.68" />
            <circle class="cls-7" cx="285.32" cy="287.56" r="2.78" />
            <path class="cls-7"
                d="M285.32,296.18a6.65,6.65,0,0,0,3.9-1.26,3.9,3.9,0,0,0-7.8,0A6.65,6.65,0,0,0,285.32,296.18Z" />
            <line class="cls-5" x1="296.73" y1="283.94" x2="319.43" y2="283.94" />
            <line class="cls-5" x1="297.21" y1="290.41" x2="344.01" y2="290.41" />
            <line class="cls-5" x1="297.21" y1="294.5" x2="344.01" y2="294.5" />
            <circle class="cls-8" cx="285.32" cy="325.28" r="6.68" />
            <circle class="cls-7" cx="285.32" cy="323.33" r="2.78" />
            <path class="cls-7"
                d="M285.32,332a6.59,6.59,0,0,0,3.9-1.27,3.9,3.9,0,0,0-7.8,0A6.59,6.59,0,0,0,285.32,332Z" />
            <line class="cls-5" x1="296.73" y1="319.72" x2="319.43" y2="319.72" />
            <line class="cls-5" x1="297.21" y1="326.18" x2="344.01" y2="326.18" />
            <line class="cls-5" x1="297.21" y1="330.28" x2="344.01" y2="330.28" />
        </g>
        <g id="Tab_1" data-name="Tab 1">
            <path class="cls-8"
                d="M117.49,215.36H244.77a2.06,2.06,0,0,1,2.06,2.06v68.49a3.45,3.45,0,0,1-3.45,3.45H118.88a3.45,3.45,0,0,1-3.45-3.45V217.42A2.06,2.06,0,0,1,117.49,215.36Z" />
            <path class="cls-8"
                d="M117.49,215.36H244.77a2.06,2.06,0,0,1,2.06,2.06v10a0,0,0,0,1,0,0H115.43a0,0,0,0,1,0,0v-10A2.06,2.06,0,0,1,117.49,215.36Z" />
            <circle class="cls-8" cx="219.93" cy="221.58" r="2.67" />
            <circle class="cls-8" cx="228.39" cy="221.58" r="2.67" />
            <circle class="cls-8" cx="236.86" cy="221.58" r="2.67" />
            <rect class="cls-9" x="129.52" y="238.97" width="26.98" height="25.78" />
            <line class="cls-9" x1="165.5" y1="241.97" x2="236.26" y2="241.97" />
            <line class="cls-9" x1="165.5" y1="250.36" x2="236.26" y2="250.36" />
            <line class="cls-9" x1="165.5" y1="258.76" x2="236.26" y2="258.76" />
            <line class="cls-9" x1="165.5" y1="267.15" x2="236.26" y2="267.15" />
            <path class="cls-7"
                d="M114.32,210.61H241.6a2.06,2.06,0,0,1,2.06,2.06v68.49a3.45,3.45,0,0,1-3.45,3.45H115.71a3.45,3.45,0,0,1-3.45-3.45V212.67A2.06,2.06,0,0,1,114.32,210.61Z" />
            <path class="cls-4"
                d="M114.32,210.61H241.6a2.06,2.06,0,0,1,2.06,2.06v10a0,0,0,0,1,0,0H112.26a0,0,0,0,1,0,0v-10A2.06,2.06,0,0,1,114.32,210.61Z" />
            <circle class="cls-7" cx="216.76" cy="216.83" r="2.67" />
            <circle class="cls-7" cx="225.22" cy="216.83" r="2.67" />
            <circle class="cls-7" cx="233.69" cy="216.83" r="2.67" />
            <rect class="cls-5" x="126.36" y="234.22" width="26.98" height="25.78" />
            <line class="cls-5" x1="162.33" y1="237.22" x2="233.09" y2="237.22" />
            <line class="cls-5" x1="162.33" y1="245.61" x2="233.09" y2="245.61" />
            <line class="cls-5" x1="162.33" y1="254" x2="233.09" y2="254" />
            <line class="cls-5" x1="162.33" y1="262.4" x2="233.09" y2="262.4" />
        </g>
        <g id="Chart_3" data-name="Chart 3">
            <rect class="cls-8" x="263.72" y="161.05" width="99.82" height="87.75" rx="4.37" />
            <rect class="cls-7" x="260.55" y="156.3" width="99.82" height="87.75" rx="4.37" />
            <rect class="cls-8" x="273.25" y="191.43" width="9.21" height="42.57" />
            <rect class="cls-4" x="286.3" y="198.34" width="9.21" height="35.67" />
            <rect class="cls-7" x="299.34" y="204.09" width="9.21" height="29.92" />
            <rect class="cls-8" x="312.38" y="186.45" width="9.21" height="47.56" />
            <rect class="cls-4" x="325.42" y="192.2" width="9.21" height="41.81" />
            <rect class="cls-7" x="338.46" y="172.25" width="9.21" height="61.75" />
            <line class="cls-5" x1="273.88" y1="167.82" x2="283.08" y2="167.82" />
            <line class="cls-5" x1="273.88" y1="171.65" x2="283.08" y2="171.65" />
            <line class="cls-5" x1="273.88" y1="175.49" x2="283.08" y2="175.49" />
            <line class="cls-5" x1="286.15" y1="167.82" x2="323.36" y2="167.82" />
            <line class="cls-5" x1="286.15" y1="171.65" x2="323.36" y2="171.65" />
            <line class="cls-5" x1="286.15" y1="175.49" x2="323.36" y2="175.49" />
        </g>
        <g id="Chart_2" data-name="Chart 2">
            <rect class="cls-8" x="263.72" y="57.08" width="99.82" height="87.75" rx="4.37" />
            <rect class="cls-7" x="260.55" y="52.33" width="99.82" height="87.75" rx="4.37" />
            <circle class="cls-7" cx="308.01" cy="94.39" r="28" />
            <path class="cls-8" d="M335.19,87.65a28,28,0,0,0-47-13.05L308,94.39Z" />
            <path class="cls-4" d="M335.19,87.65,308,94.39l-8.08,26.81a28,28,0,0,0,35.26-33.55Z" />
            <polyline class="cls-5" points="319.14 76.75 328.34 64.86 334.1 64.86" />
            <line class="cls-5" x1="339.46" y1="65.24" x2="348.67" y2="65.24" />
            <line class="cls-5" x1="339.46" y1="69.08" x2="348.67" y2="69.08" />
            <line class="cls-5" x1="339.46" y1="72.92" x2="348.67" y2="72.92" />
            <line class="cls-5" x1="339.46" y1="115.11" x2="348.67" y2="115.11" />
            <line class="cls-5" x1="339.46" y1="118.94" x2="348.67" y2="118.94" />
            <line class="cls-5" x1="339.46" y1="122.78" x2="348.67" y2="122.78" />
            <line class="cls-5" x1="268.12" y1="114.34" x2="277.33" y2="114.34" />
            <line class="cls-5" x1="268.12" y1="118.17" x2="277.33" y2="118.17" />
            <line class="cls-5" x1="268.12" y1="122.01" x2="277.33" y2="122.01" />
            <polyline class="cls-5" points="292.29 113.19 288.84 122.01 279.63 122.01" />
            <polyline class="cls-5" points="329.49 102.45 344.83 102.45 344.83 107.43" />
        </g>
        <g id="Chart_1" data-name="Chart 1">
            <rect class="cls-8" x="143.96" y="57.4" width="99.82" height="87.75" rx="4.37" />
            <rect class="cls-7" x="139.73" y="52.33" width="99.82" height="87.75" rx="4.37" />
            <line class="cls-5" x1="150.09" y1="123.47" x2="150.09" y2="126.85" />
            <line class="cls-5" x1="158.22" y1="123.47" x2="158.22" y2="126.85" />
            <line class="cls-5" x1="166.35" y1="123.47" x2="166.35" y2="126.85" />
            <line class="cls-5" x1="174.48" y1="123.47" x2="174.48" y2="126.85" />
            <line class="cls-5" x1="182.61" y1="123.47" x2="182.61" y2="126.85" />
            <line class="cls-5" x1="190.73" y1="123.47" x2="190.73" y2="126.85" />
            <line class="cls-5" x1="198.86" y1="123.47" x2="198.86" y2="126.85" />
            <line class="cls-5" x1="206.99" y1="123.47" x2="206.99" y2="126.85" />
            <line class="cls-5" x1="215.12" y1="123.47" x2="215.12" y2="126.85" />
            <line class="cls-5" x1="223.25" y1="123.47" x2="223.25" y2="126.85" />
            <line class="cls-5" x1="231.38" y1="123.47" x2="231.38" y2="126.85" />
            <polygon class="cls-4"
                points="228 76.04 219.19 80.78 212.07 66.56 202.93 78.41 194.8 71.3 187.01 62.49 178.88 71.98 170.75 95.01 161.94 86.54 153.13 92.98 153.13 114.32 228 114.32 228 76.04" />
            <line class="cls-5" x1="153.34" y1="62.3" x2="162.54" y2="62.3" />
            <line class="cls-5" x1="153.34" y1="66.14" x2="162.54" y2="66.14" />
            <line class="cls-5" x1="153.34" y1="69.97" x2="162.54" y2="69.97" />
            <polygon class="cls-8"
                points="228 94.8 219.19 98.06 212.07 82.24 202.93 93.32 194.8 90.61 187.01 107.55 178.88 84.85 170.75 107.55 161.94 99.08 153.13 110.25 153.13 118.39 228 118.39 228 94.8" />
        </g>
        <g id="Character_2" data-name="Character 2">
            <path class="cls-8"
                d="M407.35,100.86S404,92.09,394.54,93s-13.76,8.54-12.1,13.52a42.71,42.71,0,0,0,2.61,6.65s-3.08-1.43-2.13,3.55,8.06,4,9.25,3.56S398.57,106.55,407.35,100.86Z" />
            <path class="cls-8"
                d="M346.93,186l-16.84,8.42a1.87,1.87,0,0,0-.08,3.3L374.94,223a1.87,1.87,0,0,0,2.34-.41l10.55-12.27a1.88,1.88,0,0,0-.52-2.86L348.67,186A1.85,1.85,0,0,0,346.93,186Z" />
            <path class="cls-7" d="M388,201.16l-7.08-4.6s-5.31-5.95-7.31-7-15.35,1.4-15.35,1.4l29.38,16.62Z" />
            <path class="cls-7"
                d="M373.52,193.9s-5.22.24-8.44-1.14-5.07-.73-3.39,2,6.89,2.47,6.89,2.47,4.55,5.54,10.07,3.37" />
            <path class="cls-7"
                d="M445.35,432.75s3,11.41,2.73,13.39-6.45,3.72-9.92,3.72a83.9,83.9,0,0,0-10.42,1.24l.25-18.35Z" />
            <path class="cls-7"
                d="M448.08,446.14a13.24,13.24,0,0,0-.33-3,40.79,40.79,0,0,1-7.61,3.21c-4.22,1.21-10.22,1.27-12.35,1.25l-.05,3.46a83.9,83.9,0,0,1,10.42-1.24C441.63,449.86,447.83,448.13,448.08,446.14Z" />
            <path class="cls-10"
                d="M424.27,323.12s3.22,27,4.46,32.25,7.44,14.13,9.92,28,7.19,46.14,7.19,46.88.5,3,.75,4.46c0,0-5.46,2.24-9.43,1.74a56.52,56.52,0,0,1-7.44-1.49s1.74-10.66-2-29.76-7.44-38.94-9.67-52.83S424.27,323.12,424.27,323.12Z" />
            <path class="cls-7"
                d="M411.62,429.77a30.68,30.68,0,0,1-5.71,6.2c-4.21,3.72-12.15,7.69-14.38,8.68s-4,1-3.47,3.23,4.21,4,15.37,4,23.07-.5,24.31-.75,5-.24,5-3-1.24-13.64-1.24-13.64Z" />
            <path class="cls-7"
                d="M427.74,451.1c1.24-.24,5-.24,5-3,0-.4,0-1-.07-1.68-4.25.56-13.87,1.75-24.73,2.67a48.83,48.83,0,0,1-19.92-2,3,3,0,0,0,.08.8c.49,2.23,4.21,4,15.37,4S426.5,451.35,427.74,451.1Z" />
            <path class="cls-11"
                d="M385.33,266.08a345.92,345.92,0,0,0,2.48,41.67c2.73,22.07,10.66,48.86,10.66,48.86s4,21.58,5.21,29,7.69,36.7,7.69,36.7l-2.73,3.72.5,6.45,9.92,2.23a50.18,50.18,0,0,0,12.4,1.49s.5-12.9.25-14.63-1.74-9.92-2-12.65.5-33-1.24-39.93-4.71-17.11-4.71-26,6.7-52.58,6.7-52.58,7.19-10.17,7.19-16.13a41,41,0,0,0-.74-8.92Z" />
            <path class="cls-12" d="M420.49,413.93c.55,5.48.8,9.13.8,9.13s-1.6.79-.8,3.58,1.2,4.79,1.2,4.79" />
            <path class="cls-12"
                d="M404.47,294.29a187.85,187.85,0,0,0,1.27,37.5c4,27.9,10.76,53,12.76,66.16.6,4,1.09,7.81,1.48,11.26" />
            <path class="cls-12" d="M406.14,278.38s-.75,4.39-1.35,11.51" />
            <path class="cls-8"
                d="M433.21,108.93S436.29,96.59,454.79,98s18.27,18.26,18.27,18.26l-4-1.9s3.32,9.73-.48,16.84-13.52,11.15-19.92,10-13.29-7.12-14.24-10.44S437,115.81,433.21,108.93Z" />
            <path class="cls-7"
                d="M396.44,107.5s-1.42,2.38-4.27,7.36-1.66,9.49-3.56,11.86-7.11,2.13-6.4,4.5,3.79,4,3.79,4,0,13.28,1.43,14.94S399.76,149,399.76,149s2.14,3.33.71,10.68-14.23,27.75-15.89,37.95,4,35.58,4,35.58l-5.45,37A75.64,75.64,0,0,0,413.28,274c16.37-1.42,26.33-4.74,26.33-4.74L428.7,226.34s.95-30.36-1.19-47.2-7.59-20.87-7.59-27,7.83-9.49,12.81-15.42a24.89,24.89,0,0,0,2.37-25.86c-3.88-8.39-16.36-11.62-24.9-11.86S396.44,107.5,396.44,107.5Z" />
            <path class="cls-8" d="M399.76,149l5.2-1.16-3.24,6.48A18.94,18.94,0,0,0,399.76,149Z" />
            <path class="cls-4"
                d="M439.61,269.28,428.7,226.34s.95-30.36-1.19-47.2a68.07,68.07,0,0,0-2.24-11c-3.49-2.72-8.88-6.14-14.36-6.56-6.37-.49-12.74,6.88-16.09,11.53-4.17,8.48-9.24,18.36-10.24,24.52-1.66,10.2,4,35.58,4,35.58l-5.45,37A75.64,75.64,0,0,0,413.28,274C429.65,272.6,439.61,269.28,439.61,269.28Z" />
            <path class="cls-8"
                d="M410.2,99c-8.54-.23-13.76,8.54-13.76,8.54s-.74,1.24-2.22,3.8c1.48-1.76,6.86-7.53,9.1-1.42,1.31,3.56-1.9,8.54-.24,10.2s5,5.45,4.51,6.16a7.57,7.57,0,0,0-.71,2.38s4.27-6.17,7.59-2.38-1.19,10.91-1.19,10.91l-2.85.95s9.26,10.44,10.92,10.44c.45,0,1.65-3.56,3.79-4.27a74.84,74.84,0,0,0,7.59-7.59,24.89,24.89,0,0,0,2.37-25.86C431.22,102.43,418.74,99.2,410.2,99Z" />
            <path class="cls-13"
                d="M394.05,126.09c-.26,1.21-.89,2.11-1.4,2s-.72-1.18-.46-2.4.89-2.12,1.4-2S394.31,124.87,394.05,126.09Z" />
            <path class="cls-3" d="M392.17,120.31s2.61-2.84,4.27.71" />
            <path class="cls-3" d="M387.9,138.1s.47,1,3.08,0" />
            <path class="cls-4"
                d="M403.56,174.4s-3.56,5-5,14.23-.23,39.38-.23,39.38-20.17-5.7-26.81-9a96.53,96.53,0,0,1-8.77-4.74s-2.14-5-3.8-6.88-6.17-2.37-7.83-3.56-2.84-5-5-3.56a2.34,2.34,0,0,0-.24,4c.95.72,4.51,4.27,4.51,4.27l-9-4s-.71,3.56.47,4.75,3.56,3.32,3.56,3.32,3.56,5,5.69,6.16a39.09,39.09,0,0,0,6.64,2.38c2.13.71,4.27,2.52,6.17,3.67q6,3.67,12.09,7.35a107.66,107.66,0,0,0,19.77,9.31c4.32,1.52,14.89,6.16,18.65,1.51,1.61-2,1.12-8,1.54-10.5,2.65-15.91,6.07-31.92,6.07-48.11" />
            <path class="cls-7"
                d="M391.15,225.89c-6.47-2-15.56-4.87-19.62-6.9a96.53,96.53,0,0,1-8.77-4.74s-2.14-5-3.8-6.88-6.17-2.37-7.83-3.56-2.84-5-5-3.56a2.34,2.34,0,0,0-.24,4c.95.72,4.51,4.27,4.51,4.27l-9-4s-.71,3.56.47,4.75,3.56,3.32,3.56,3.32,3.56,5,5.69,6.16a39.09,39.09,0,0,0,6.64,2.38c2.13.71,4.27,2.52,6.17,3.67q6,3.67,12.09,7.35a105.27,105.27,0,0,0,12.09,6.27Z" />
            <polyline class="cls-3" points="405.22 234.88 398.34 228 400.24 234.41" />
        </g>
        <g id="Character_1" data-name="Character 1">
            <path class="cls-8"
                d="M102.44,331.32S98.15,357,92.55,380.78s-4,56.71-4,56.71-3,6.27-.33,9.24,6.92,2,7.91,2,7.92-.33,7.92-.33,5.27-31.32,7.25-59.68.33-71.55-1.65-69.9S103.43,329,103.43,329Z" />
            <path class="cls-8"
                d="M88.92,247.9S85,271,86,277.58a114.89,114.89,0,0,0,3.63,14.83S98.48,332,99.47,335s0,38.25-2,53.74,1.32,25.72,2,30.67.33,21.1.33,21.1l-.66,9.23s4.62,1.65,12.86,1.65,25.72,1,25.72,1,10.55-.33,9.56-4.94-12.86-6.93-16.16-9.9a74,74,0,0,1-5.6-5.6s.33-3.3-.33-4.95-3.3-1.65-3-3.95,5.94-54.74,10.22-68.26,7.59-68.91,7.26-78.47-2.31-24.07-2.31-24.07Z" />
            <path class="cls-14"
                d="M92.35,157.9s-9.74,20.68-11.16,34.88,6.29,49.48,6.29,49.48-3,8.92-.81,10.34,51.92,4.06,51.92,4.06,3-.41,3-3-.81-4.46-1.22-6.69.61-47.87-3.85-58S123,166.41,123,166.41Z" />
            <path class="cls-3" d="M101.12,241.7c5.52-7.26,13.8-18.43,19.68-27.48" />
            <path class="cls-3" d="M95.29,249.29l2.89-3.73" />
            <path class="cls-3" d="M120,209.83S100.87,223,98.48,223.78" />
            <path class="cls-7"
                d="M133.92,102.33s3.25-10.75,3.85-14A25.07,25.07,0,0,1,140,82.05V90s2.43-2.84,5.07-6.29,5.07-3.24,4,.41-3.65,7.7-3.85,8.31a58,58,0,0,1-2.44,7.71,32.77,32.77,0,0,1-4.25,6.08Z" />
            <path class="cls-7" d="M120.74,110.44l13.18-8.11s3.65-.41,4.67,3.85.4,1.83.4,1.83l-10.34,14.6Z" />
            <path class="cls-7"
                d="M118.91,105.17S109,94.82,106.54,95.64s-1.21,5.07-1.21,5.07-5.89-2.23-6.09-.61l-.2,1.62s-10.55,6.29-13.39,13-3.24,13.18,0,16.83,11.16,16.63,11.16,16.63l.2,6.29,20.08,5.07,1.82-8.52s9.54,0,10.35-1.42,1.21-17,1.21-17l4.26-5.28s-7.7-8.92-8.92-11.56A66.35,66.35,0,0,0,118.91,105.17Z" />
            <path class="cls-3" d="M129.25,136.5s-.95,1.26-3.47-1.26" />
            <path class="cls-8"
                d="M118.91,105.17S109,94.82,106.54,95.64s-1.21,5.07-1.21,5.07-5.89-2.23-6.09-.61l-.2,1.62s-10.55,6.29-13.39,13-3.24,13.18,0,16.83c2.51,2.82,7.81,11.22,10.08,14.88a14.92,14.92,0,0,0,4.12-.07c5.68-1,9.53-7.51,9.53-7.51s-3.85-1.21-4-6.28,3-6.09,3-6.09,2.84,3.25,5.27,1.83-3-4.06-3.85-6.09,1.21-4.86,1.62-6.28-3.85-1-5.48-1.83,7.1-4.87,8.93-6.08-2-.41-4.26-1.63S118.91,105.17,118.91,105.17Z" />
            <path class="cls-13"
                d="M124.54,120.58c.39,1.11.33,2.14-.15,2.31s-1.18-.59-1.57-1.7-.33-2.14.15-2.31S124.15,119.47,124.54,120.58Z" />
            <path class="cls-3" d="M119.93,117.34s.81-5.68,4.46-3.25" />
            <polyline class="cls-3" points="109.38 138.83 113.23 137.82 114.25 140.86" />
            <path class="cls-14" d="M91.74,150.6c.61,0,32.24,9.93,32.24,9.93l.61,9.33L90.93,159.72Z" />
            <path class="cls-14"
                d="M97.62,195.41s37.72,16.43,48.06,17.45,57.19-47.66,57.19-47.66l-5.47-7.1s-38.33,19.67-43,21.29S111,168.64,108.17,168s-9.13.4-11.56,3.65" />
            <line class="cls-3" x1="109.79" y1="200.69" x2="94.98" y2="201.9" />
            <line class="cls-3" x1="192.73" y1="161.55" x2="198.82" y2="169.05" />
            <path class="cls-7"
                d="M197.4,158.1l5.68-7.91,2.43-7.3c.41-1.22,4.26-3.85,5.48-5.48s2.43-5.27,3.65-4.26,1,3.25.6,4.26-2.43,3.25-2.63,4.26,12.17-2.23,12.17-2.23,2,.61,1.42,2.23a23.46,23.46,0,0,1-2.64,4.26s-2.43,7.71-4.26,9.53S209,159.72,209,159.72l-6.09,5.48Z" />
        </g>
    </g>
</svg>