<svg xmlns="http://www.w3.org/2000/svg" xmlns:xlink="http://www.w3.org/1999/xlink" viewBox="0 0 451.72 425.68">
    <defs>
        <style>
            .cls-1,
            .cls-4,
            .cls-7 {
                fill: #ffb657;
            }

            .cls-1,
            .cls-12,
            .cls-13,
            .cls-16,
            .cls-2,
            .cls-3,
            .cls-6 {
                stroke: #263238;
            }

            .cls-1,
            .cls-11,
            .cls-12,
            .cls-13,
            .cls-16,
            .cls-2,
            .cls-3,
            .cls-6 {
                stroke-linecap: round;
                stroke-linejoin: round;
            }

            .cls-17,
            .cls-2 {
                fill: #757575;
            }

            .cls-20,
            .cls-3,
            .cls-5 {
                fill: #fff;
            }

            .cls-5 {
                opacity: 0.7;
            }

            .cls-11,
            .cls-6 {
                fill: none;
            }

            .cls-7,
            .cls-8 {
                opacity: 0.2;
            }

            .cls-9 {
                clip-path: url(#clip-path);
            }

            .cls-10,
            .cls-12 {
                fill: #263238;
            }

            .cls-11 {
                stroke: #fff;
            }

            .cls-13 {
                fill: #bfbfbf;
            }

            .cls-14 {
                clip-path: url(#clip-path-2);
            }

            .cls-15 {
                opacity: 0.4;
            }

            .cls-16 {
                fill: #92e3a9;
            }

            .cls-18 {
                clip-path: url(#clip-path-3);
            }

            .cls-19 {
                clip-path: url(#clip-path-4);
            }

            .cls-21 {
                clip-path: url(#clip-path-5);
            }

            .cls-22 {
                clip-path: url(#clip-path-6);
            }
        </style>
        <clipPath id="clip-path">
            <path class="cls-1"
                d="M76.08,301.14S69.19,319.8,73,331.6s31.23,20.56,37.33,20.56S165.14,340,165.14,340l2.44,2.67,7.5-3.05L163.27,394s-5.72,3,0,4.94,27.41,1.91,27.79,0a19.71,19.71,0,0,0,0-4.94l3.22-6.1s-.59-10.66,0-12.18S219.23,323.6,209,311.42s-71-2.28-71-2.28l-7.75-8Z" />
        </clipPath>
        <clipPath id="clip-path-2">
            <path class="cls-1"
                d="M326.85,120.31c-3.88,6.27-8.81,53.3-8.81,53.3l-3.77,1.69-1.58,4.86s-27.7,11.69-32.44,13.47a34.7,34.7,0,0,1-10.68,1.73s6.33,4.55,7.12,10-.79,12.47-.79,12.47,47.61-16.88,52.53-18.58,14.08-28.17,14.08-28.17Z" />
        </clipPath>
        <clipPath id="clip-path-3">
            <path class="cls-2"
                d="M336.21,205.85,331.87,215S314,252,303,294.4c-.25,1-5.93,21.08-1.38,71.06L299,374.23l2.83,14.48s-4.26,6.16-4.11,8.18c0,0,10.52,2,14,3.84,2.74,1.47,10.93,9.56,10.93,9.56,2.32-.48,2.53-9.88,2.53-9.88s4.86-83.42,6.25-87,9.94-19.1,23.25-54.57c0,0,.3,49.55,3.86,62.08,3.16,11.15-.59,42.36-.59,42.36L360.13,398s-7.49,7.79-1.41,9.87c0,0,4-7.81,15.62-9.58,5.87-.9,13.2,9.53,13.2,9.53,2.56-.82-1.1-13.93-1.1-13.93,8.2-61.84,2.15-50.64,3.79-80.87,1-19.39,6.55-102.39.09-109.13Z" />
        </clipPath>
        <clipPath id="clip-path-4">
            <path class="cls-1"
                d="M325.93,131.72c.1,1.54,1.89,4.35,1.89,4.35v0c1.12,16.6,3.11,41.06,5.37,46.51,3.5,8.42-4.6,37.32-4.6,37.32,20.47,8.85,69.67,1,69.67,1s-7.93-25.64-3.71-43.8c1.64-7,3.91-17.44,6.08-27.55,3.43-16,6.61-31.18,6.61-31.18s-9.5-12.91-40.06-14-40.33,15.92-40.33,15.92a17.48,17.48,0,0,0-.91,6" />
        </clipPath>
        <clipPath id="clip-path-5">
            <path class="cls-3"
                d="M398.26,220.92s-49.2,7.85-69.67-1c0,0,8.1-28.9,4.6-37.32-2.26-5.45-4.25-29.91-5.37-46.51v0s9-16.54,16.75-21.45a7.74,7.74,0,0,0,7.32,5.6c6,.29,15.15-9.55,15.15-9.55s23.94,18.64,33.59,38.9c-2.17,10.11-4.44,20.52-6.08,27.55C390.33,195.28,398.26,220.92,398.26,220.92Z" />
        </clipPath>
        <clipPath id="clip-path-6">
            <path class="cls-1"
                d="M407.24,118.39c6.72,10.28,20.57,52.89,22.15,58.83S423.25,197,413.27,196.8s-30-12.46-30-12.46,13.41-.66,7.78-19.73l11.21,2.79s-6-16.14-8.71-22c-3.63-7.92-6.46-9.5-6.72-23" />
        </clipPath>
    </defs>
    <g id="Layer_2" data-name="Layer 2">
        <g id="Background_Simple" data-name="Background Simple">
            <path class="cls-4"
                d="M114.25,384.33c23.6,24.92,81.55,15.79,106.64,0,81.46-51.25,224.25-136.57,230.71-260.17C454.35,71.63,408,44,388.67,36,342.18,16.52,291.19,10.68,240.86,8.43c-52.57-2.35-109-.52-156.31,25.13C66.61,43.28,49.69,55.73,38.11,72.74,26.35,90,19.58,110.6,17.78,131.37c-2.89,33.5,6.12,67.09,19.75,97.83S69.33,288.4,86,317.6C96.9,336.65,94.37,363.34,114.25,384.33Z" />
            <path class="cls-5"
                d="M114.25,386.73c23.6,24.92,81.55,15.8,106.64,0,81.46-51.25,224.25-136.56,230.71-260.16C454.35,74,408,46.45,388.67,38.35c-46.49-19.43-97.48-25.27-147.81-27.52C188.29,8.48,131.9,10.31,84.55,36,66.61,45.68,49.69,58.14,38.11,75.15,26.35,92.42,19.58,113,17.78,133.77c-2.89,33.5,6.12,67.09,19.75,97.83S69.33,290.8,86,320C96.9,339.05,94.37,365.74,114.25,386.73Z" />
        </g>
        <g id="Window">
            <polyline class="cls-6" points="171.24 0.5 171.24 168.24 0.5 168.24" />
            <path class="cls-6" d="M46.12,156.71q-19.44-.06-38.88-.19" />
            <polyline class="cls-6" points="160.02 11.01 159.82 156.85 159.82 156.85 60.73 156.76" />
            <line class="cls-6" x1="160.02" y1="0.5" x2="160.02" y2="7.26" />
            <line class="cls-6" x1="29.87" y1="66.83" x2="24.73" y2="66.83" />
            <line class="cls-6" x1="114.55" y1="66.85" x2="38.8" y2="66.83" />
            <path class="cls-6" d="M160,66.83l-37.87,0" />
            <path class="cls-6" d="M89.64,74.75s.18,53.1,0,80.2" />
            <line class="cls-6" x1="89.64" y1="18.56" x2="89.64" y2="65.56" />
            <polyline class="cls-6" points="243.54 104.06 213.42 104.06 213.42 59.02" />
            <polyline class="cls-6" points="273.66 81.77 273.66 104.06 247.75 104.06" />
            <polyline class="cls-6" points="213.42 54.86 273.66 54.86 273.66 78.31" />
            <polyline class="cls-6" points="226.65 97.7 220.42 97.7 220.42 61.22 234.48 61.22" />
            <polyline class="cls-6" points="266.66 63.68 266.66 97.7 231.53 97.7" />
            <line class="cls-6" x1="237.6" y1="61.22" x2="266.66" y2="61.22" />
            <polyline class="cls-6" points="289.95 124.61 283.71 124.61 283.71 103.47" />
            <polyline class="cls-6" points="317.25 86.39 330.5 86.39 330.5 124.61 292.72 124.61" />
            <polyline class="cls-6" points="283.71 97.7 283.71 86.39 314.61 86.39" />
            <polyline class="cls-6" points="292.72 91.33 325.06 91.33 325.06 96.78" />
            <polyline class="cls-6" points="299.58 119.67 289.15 119.67 289.15 91.33" />
            <line class="cls-6" x1="318.57" y1="119.67" x2="302.48" y2="119.67" />
            <line class="cls-6" x1="325.06" y1="100.77" x2="325.06" y2="119.67" />
            <polyline class="cls-6" points="275.11 116.64 275.11 153.14 242.51 153.14 242.51 144.01" />
            <polyline class="cls-6" points="242.51 138.45 242.51 113.24 275.11 113.24" />
            <polyline class="cls-6" points="259.75 148.51 246.73 148.51 246.73 122.62" />
            <polyline class="cls-6" points="270.9 139.5 270.9 148.51 262.13 148.51" />
            <polyline class="cls-6" points="253.29 117.88 270.9 117.88 270.9 132.38" />
            <line class="cls-6" x1="246.73" y1="117.88" x2="250.65" y2="117.88" />
        </g>
        <g id="Plant">
            <path class="cls-7"
                d="M443,347.92c-4.72-5.39-19.53,8.3-19.53,8.3,4.45-12.47,15.95-18.88,18.92-30.37s-5.57-17.06-8.9-4.22c-.48,1.84-1.09,3.72-1.77,5.6-1.53-2.6-4.65-2.33-6.76-.1v0c1.91-16.78,1.11-32.85-4-32.84-3.83,0-5.17,3.47-5.17,9.86v-.08c-1.47-4.81-3.43-6.31-6.8-5.41-4.15,1.11-1,16,.9,29.83a14.37,14.37,0,0,0-2.47-4.85c-4.14-4.39-11.06-3-3.31,14.55a73.84,73.84,0,0,1,4.55,14.57l0-.05s-8.77-13.9-12.11-26.75-11.86-7.28-8.89,4.22,14.46,17.91,18.91,30.38c0,0-14.8-13.7-19.53-8.31-2.66,3,4.07,5.23,7,6.63a29.42,29.42,0,0,1,11.44,9.53h16.39A31.57,31.57,0,0,1,436,354.55C439,353.15,445.68,351,443,347.92Z" />
            <path class="cls-6"
                d="M443,347.92c-4.72-5.39-19.53,8.3-19.53,8.3,4.45-12.47,15.95-18.88,18.92-30.37s-5.57-17.06-8.9-4.22-12.8,27.87-12.8,27.87c6-20.68,7.74-55.18.32-55.17-5.81,0-5.92,7.93-4.26,22s-2,34.48-2,34.48-3.15-22.76-7.3-27.15-11.06-3-3.31,14.55c4.72,10.73,6.13,22.44,6.5,30.22h11.22A31.57,31.57,0,0,1,436,354.55C439,353.15,445.68,351,443,347.92Z" />
            <path class="cls-6" d="M416.16,368.45c2.5-18.06,6.49-37,5.34-55.73" />
            <path class="cls-6" d="M408.09,337.35c4.2,9.5,5.81,20.81,6.61,31.1" />
            <path class="cls-6" d="M436.5,328.82S426.85,349.19,418,357" />
            <path class="cls-6" d="M436.5,350.76S420.19,362,416.19,368.45" />
            <polygon class="cls-6" points="437.56 368.45 392.14 368.45 395.66 416.75 434.04 416.75 437.56 368.45" />
            <path class="cls-6" d="M431.74,327.24c-1.53-2.61-4.64-2.35-6.76-.11" />
            <path class="cls-6"
                d="M408.68,352.75s-8.77-13.9-12.11-26.75-11.86-7.28-8.89,4.22,14.46,17.91,18.91,30.38c0,0-14.8-13.7-19.53-8.31-2.66,3,4.07,5.23,7,6.63a29.42,29.42,0,0,1,11.44,9.53h16" />
            <path class="cls-6" d="M415.85,304.11c-1.47-4.81-3.43-6.31-6.8-5.41-4.57,1.22-1.28,13.66.42,28.54" />
        </g>
        <g id="Sofa">
            <path class="cls-8"
                d="M214.18,360.6s-9,17.32-9.81,18.11-1.85,11.83-1.85,11.83l-1.13,1.91-9.68,16.37-5.27,8.68H110.63L106,400.41c-2.91-1.77-11-39.81-11-39.81.1-3.61-4.06-7.44-4.06-7.44C66.32,352.53,52.72,334,52.72,334l3.11-.14,11.4-.52c-3.43-7.91-1.85-37.71-7.92-52.21-3.37-8.05-4.62-21.48-4.16-33.18.36-9.36,5.51-13.36,7.86-16.86,5.28-7.86,25.05-9.83,38.77-7,8.12,1.7,17.25,9.37,23.33,15.35l19.15,93.86-2.67,0,.65.64h83.81C230.57,348,214.18,360.6,214.18,360.6Z" />
            <line class="cls-6" x1="31.5" y1="417.51" x2="442.14" y2="417.51" />
            <path class="cls-6"
                d="M226.74,417.51V360.6h0a8.67,8.67,0,0,0,8.67-8.67v-9.26a8.67,8.67,0,0,0-8.67-8.66H31.5" />
            <line class="cls-6" x1="226.74" y1="360.6" x2="86.54" y2="360.6" />
            <line class="cls-6" x1="81.43" y1="360.6" x2="75.01" y2="360.6" />
            <line class="cls-6" x1="56.41" y1="360.6" x2="43.36" y2="360.6" />
            <path class="cls-6" d="M144.26,333.35l-19.8-97.06a38.09,38.09,0,0,0-37.32-30.48H12.5" />
            <path class="cls-6" d="M68.75,226.85C72.6,233.28,72.5,246,72.5,246s6.33,10,4.12,21" />
            <path class="cls-6" d="M54.38,246c6.34-2.23,18.12,0,18.12,0s10.33-3,18.33,0" />
            <path class="cls-6" d="M35.26,278.31c3.85,6.43,3.75,19.1,3.75,19.1s6.33,10,4.12,21" />
            <path class="cls-6" d="M20.88,297.41c6.34-2.23,18.13,0,18.13,0s10.32-3,18.33,0" />
        </g>
        <g id="Character_1" data-name="Character 1">
            <path class="cls-3"
                d="M155.08,257s34.09,19.95,40.95,21,21.41-17.56,40.86-49.16L235,220l-7.71,5.46c-1.89,6-15.26,14.62-23.54,22a53.79,53.79,0,0,0-7.35,7.93c-4.52-1.57-15.21-10.17-15.21-10.17" />
            <path class="cls-2"
                d="M168.53,386.62s-7.8,22.68-7.46,29.81c0,0,12.7,3.16,19.18,2.37s19.4.25,26.26.13,7.65-1.71,7.65-1.71.53-2.9-4-5.54-22.68-4-24.26-17.16S168.53,386.62,168.53,386.62Z" />
            <path class="cls-4"
                d="M76.08,301.14S69.19,319.8,73,331.6s31.23,20.56,37.33,20.56S165.14,340,165.14,340l2.44,2.67,7.5-3.05L163.27,394s-5.72,3,0,4.94,27.41,1.91,27.79,0a19.71,19.71,0,0,0,0-4.94l3.22-6.1s-.59-10.66,0-12.18S219.23,323.6,209,311.42s-71-2.28-71-2.28l-7.75-8Z" />
            <g class="cls-9">
                <path class="cls-8"
                    d="M173.58,340.2l-6,2.44L165.14,340s-48.7,12.18-54.79,12.18S76.84,343.4,73,331.59a21.06,21.06,0,0,1-.69-2.79c4.19,4.14,12.31,11.24,20.84,13.68,0,0-2.49-2.61,4.13-4s26.93-33.59,26.93-33.59l8.9-.7,4.82,5s9.37-1.53,21.37-2.64A321,321,0,0,0,173.58,340.2Z" />
                <path class="cls-8"
                    d="M194.28,375.76c-.59,1.52,0,12.18,0,12.18L191.06,394a19.8,19.8,0,0,1,0,5c-.38,1.9-22.08,1.9-27.79,0s0-5,0-5l11.27-51.93c6,11.79,13.3,23.44,21.15,30.54C194.88,374.44,194.36,375.55,194.28,375.76Z" />
                <path class="cls-6" d="M175.08,339.59s-3.45-6.22-1.54-10.72" />
                <path class="cls-6" d="M176.64,330.14a36.46,36.46,0,0,0-.26,5.53" />
                <path class="cls-6" d="M178.21,323a35.29,35.29,0,0,0-1.06,4" />
                <path class="cls-6" d="M184.1,348.28s.32,18.14,10.18,27.48" />
                <path class="cls-6" d="M180.58,383c2.67,4,5.94,8.9,10.48,11" />
                <path class="cls-6" d="M177.29,377.59c.51.94,1.05,1.87,1.6,2.78" />
                <path class="cls-8"
                    d="M73.15,311.78a81,81,0,0,1,2.93-10.64h2.37l11.19,6.5S91.67,312.54,73.15,311.78Z" />
            </g>
            <path class="cls-6"
                d="M76.08,301.14S69.19,319.8,73,331.6s31.23,20.56,37.33,20.56S165.14,340,165.14,340l2.44,2.67,7.5-3.05L163.27,394s-5.72,3,0,4.94,27.41,1.91,27.79,0a19.71,19.71,0,0,0,0-4.94l3.22-6.1s-.59-10.66,0-12.18S219.23,323.6,209,311.42s-71-2.28-71-2.28l-7.75-8Z" />
            <path class="cls-2"
                d="M120.8,398.52s-1.06,6.55,0,7.74S124,421.44,124,421.44s27.6,4.28,35.82,3.69c11-.79,13.57-4,13.57-4s.19-4.22-10.16-7.53c-12.77-4.08-22.61-17.72-22.61-17.72Z" />
            <path class="cls-10"
                d="M163.78,227.17s10.13,1.91,16.46,13,8.3,8.95,11.24,10.77-11.72,17-17.13,19.66L171,267s-8.52-.79-13-7.91S163.78,227.17,163.78,227.17Z" />
            <path class="cls-10"
                d="M171.43,253.55c-9.31,16.13-33.24,41.29-33.24,41.29s1.5,2.28-1.82,6.47a6.43,6.43,0,0,1,1.82,3.81c.2,2.28-19.48,13.7-38.14,10.66S73.4,307.4,73,303.6s18.88-54.71,31.82-70.32a61.31,61.31,0,0,1,35.26-11.35c14.94-.08,26.59,4.85,31.88,12.18" />
            <path class="cls-3"
                d="M164.6,222.88c-2,.41-3.81,2.48-5,4.29a21.36,21.36,0,0,0-1.63,3s3,9.89-6.91,8-13.14-12-13.14-12c5.91-4.38,5.34-10.23,5.34-10.23,6.32-2.22,18.37,3,21.23,5.63C165.28,222.21,165.39,222.73,164.6,222.88Z" />
            <path class="cls-10"
                d="M164.6,222.88c-2,.41-3.81,2.48-5,4.29-4.22-3.23-4.44-7.15-4.44-7.15l9.33,1.5C165.28,222.21,165.39,222.73,164.6,222.88Z" />
            <path class="cls-10"
                d="M149.56,176.06a23.26,23.26,0,0,1,14.75,0c8.09,2.66,9.23,15.22,9.23,15.22l-.85-1.13s1.2,4.44-5.11,5.6S149.56,176.06,149.56,176.06Z" />
            <path class="cls-3"
                d="M145.17,216.82s-4.5-5.58-5.74-9.5c-5.31-16.8-6.24-27.58,12.79-31.71,13.46-2.91,20.37,15.13,20.06,21.64-.18,3.68,1.63,7.27,2.54,10.19,1,3.26-.92,16.05-5.09,17.09-5.33,1.33-14.13-.5-15.51-3.46" />
            <path class="cls-10"
                d="M161.12,202c.24.88-.05,1.73-.66,1.9s-1.3-.41-1.54-1.29.05-1.73.66-1.9S160.87,201.13,161.12,202Z" />
            <path class="cls-10"
                d="M170.32,199c.24.88,0,1.73-.66,1.9s-1.3-.41-1.54-1.29,0-1.72.66-1.89S170.08,198.09,170.32,199Z" />
            <path class="cls-6" d="M160,196.8a12.83,12.83,0,0,1-4.05,3.49" />
            <path class="cls-6" d="M167.58,193.63a27.26,27.26,0,0,1,3.43,1" />
            <path class="cls-6" d="M167,201.25s4.76,4.18,5,5-2.67,3.11-2.67,3.11" />
            <path class="cls-10"
                d="M161,194.14l1-5.43s-6.28,8.39-11.8,11.58a35.58,35.58,0,0,0,1,7.94s-7.46-4.18-7.23,0,4.08,7.71,2.74,9.89c-.46.75-3.5.19-3.5.19s-14.47-5.94-12.76-23.66,16.39-22.9,23-22.4C171,173.58,168,190.81,161,194.14Z" />
            <path class="cls-3" d="M147.85,207.27s-5.06-4.27-5.71,0,6.47,10.28,8.18,8.19,0-2.48,0-2.48" />
            <path class="cls-6" d="M171,212.6a10.6,10.6,0,0,1-7.74,1" />
            <path class="cls-3"
                d="M100.32,267s-6.6,28.56-5.08,35.41,40.82,16.37,46.43,19.54c0,0,.91,6.73,2.56,8.51a29.26,29.26,0,0,0,3.55,3.17v3.17a2.13,2.13,0,0,0-2.06-.89c-1.49.13.54,3,2.06,3.3s3.18-2.28,3.18-2.28a16,16,0,0,0,2.91.13c1-.13,1.91-2.42,1.91-2.42s3.17,2.5,3.93,1.74-.12-9.22,0-10.49-9.9-9.65-11.67-11-32.49-20.18-32.49-20.18S121,278,122.28,269.8,100.32,267,100.32,267Z" />
            <line class="cls-6" x1="155.78" y1="334.64" x2="157.32" y2="328.73" />
            <line class="cls-6" x1="150.96" y1="336.93" x2="152.31" y2="333.35" />
            <line class="cls-6" x1="156.55" y1="331.69" x2="157.85" y2="334.01" />
            <path class="cls-6" d="M152.84,336.93c1.32-.94,2.24-5.24,2.24-5.24" />
            <path class="cls-10"
                d="M112.63,231.09S102,241,102.35,248.22s-4.57,20.89-4.57,20.89l2.29,2.34s15.23.76,22.46,4.94c0,0,3.17,2,2.28-5.33a14.89,14.89,0,0,1,4.83-10.4c2.66-2.36,2.41-15.86,2.41-15.86" />
            <path class="cls-1"
                d="M94.36,336.55c1.52,7.23,7.23,17.35,9.51,21.54s11.81,37.33,11.81,37.33-.38,6.09,8.37,7.62,25.35-4.19,20.93-6.86-9.17-33.36-9.17-33.36,2.33-4.19-1.93-10.36-4.6-41.31-12.87-43.7c-14.47-4.19-31.37,4.82-31.37,4.82s-4.78,1.5-6.36,5.86" />
            <path class="cls-11" d="M97.78,269.11c-1.77-3.54,1.85-5.21,2.69-8.7s-1-11.28,3.45-22.05" />
            <path class="cls-11" d="M165.14,263s9.23-10.14,8.4-20.53" />
            <path class="cls-11" d="M122.5,275.52s2.63.09,2.47-2.18-.29-5,1-7.48,5.61-6.75,6.09-15.06" />
            <path class="cls-11" d="M125.37,267.32s6.77-2.28,8.94-7" />
            <path class="cls-11" d="M174.55,255.43a14.48,14.48,0,0,1-7.54,5.26" />
            <path class="cls-11" d="M177.43,249.22a15.43,15.43,0,0,1-1.19,3.4" />
            <path class="cls-11" d="M176.38,263.59a24.32,24.32,0,0,1-2.84,1.64" />
            <path class="cls-11" d="M186.14,252.76a28.79,28.79,0,0,1-7.3,9" />
            <path class="cls-11" d="M110.63,265.78c2.87.47,6.08,1.26,8.25,3.33" />
            <path class="cls-11" d="M103.92,265.23c1.13,0,2.26,0,3.39.14" />
            <path class="cls-11" d="M157.32,239.72s-9.4,5.17-17.93-5.93" />
            <path class="cls-11" d="M134.1,290.69c-4.28,1.74-9,3.41-13.63,3.43" />
            <path class="cls-11" d="M140.84,287.59c-1.14.6-2.31,1.16-3.48,1.69" />
            <path class="cls-11" d="M79.92,297.48a21,21,0,0,0,13.25,1.19" />
            <path class="cls-6" d="M97.56,321.5c2.62-5.38,7-10.19,13.07-11.36" />
            <path class="cls-6" d="M95,328.73a31.25,31.25,0,0,1,1.25-4.21" />
            <path class="cls-6" d="M78.14,315.08s5.8-2.61,11.5-1.5" />
            <path class="cls-6" d="M132.37,362.87a12.39,12.39,0,0,0,3.44-.05" />
            <path class="cls-6" d="M107.31,345.05c5.72,6.89,13.2,14.26,21.87,17.1" />
            <path class="cls-3"
                d="M231.74,220.65s8.29-3.2,10.09-4.68,3-10,6.54-7.9c.95.55.45,4.37.45,4.37a5.51,5.51,0,0,1,2.52,1.19c1,1-.63,3.81-.63,3.81a6.91,6.91,0,0,1,1.23,4.51c-.05,1.61-3.42,5.49-7.91,8.69-3.7,2.63-8.06,5.28-12.84,1.83" />
            <path class="cls-3"
                d="M228.08,228.7a11.85,11.85,0,0,1-1-7.81c1.07-3.93,7.78-6.41,9.54-10.56,0,0,1.07.15,1.13,2.29s-3.58,6.25-3.58,6.25a9.66,9.66,0,0,1,.29,8.08" />
            <path class="cls-6" d="M251.78,220c-1.89-.9-2.5-.12-2.85,2.2l-2.59,1.89" />
            <path class="cls-6" d="M250.71,217.44a2,2,0,0,0-1.45-1.52c-1.2-.25-1.4,3.23-1.4,3.23l-2.1,1.08" />
            <path class="cls-6" d="M248.82,212.44l-2.5.19s-.6,1.16.81,2.42c0,0-.38,1-2.75,2.51" />
        </g>
        <g id="Character_2" data-name="Character 2">
            <path class="cls-12" d="M269.57,195.36c-2.43,0,.26,24.64,6.33,22.49s9.09-16.4,9.09-16.4Z" />
            <path class="cls-13"
                d="M270.27,213s-7.3,4.37-11.13,6.12c-4,1.85-9.61-.27-9.61-.27-2.3.87-9.19-4-9.39-4.61-.29-.89,10-15.75,10-15.75a2,2,0,0,1-1.86-2.35,20.33,20.33,0,0,0,7.58-2c3.91-1.89,12.16,6.57,12.16,6.57l10.32-4.21L280,210.71Z" />
            <path class="cls-4"
                d="M326.85,120.31c-3.88,6.27-8.81,53.3-8.81,53.3l-3.77,1.69-1.58,4.86s-27.7,11.69-32.44,13.47a34.7,34.7,0,0,1-10.68,1.73s6.33,4.55,7.12,10-.79,12.47-.79,12.47,47.61-16.88,52.53-18.58,14.08-28.17,14.08-28.17Z" />
            <g class="cls-14">
                <path class="cls-8"
                    d="M338.59,181.49c-3.09,7.62-7.33,16.8-10.16,17.78l-.35.12c-4.48-24.93,3.39-55,3.39-55Z" />
                <path class="cls-15"
                    d="M342.51,171.1s-1.65,4.77-3.92,10.39c-3.09,7.62-7.33,16.8-10.16,17.78l-.35.12c-6.47,2.26-52.18,18.46-52.18,18.46s1.58-7,.79-12.48-7.12-10-7.12-10a34.7,34.7,0,0,0,10.68-1.73c4.75-1.78,32.44-13.47,32.44-13.47l1.58-4.87,3.77-1.68s4.93-47,8.81-53.3Z" />
                <path class="cls-16"
                    d="M407.24,118.39c6.72,10.28,20.57,52.89,22.15,58.83S423.25,197,413.27,196.8s-30-12.46-30-12.46,13.41-.66,7.78-19.73l11.21,2.79s-6-16.14-8.71-22c-3.63-7.92-6.46-9.5-6.72-23" />
                <path class="cls-16"
                    d="M407.24,118.39c6.72,10.28,20.57,52.89,22.15,58.83S423.25,197,413.27,196.8s-30-12.46-30-12.46,13.41-.66,7.78-19.73l11.21,2.79s-6-16.14-8.71-22c-3.63-7.92-6.46-9.5-6.72-23" />
                <path class="cls-16"
                    d="M407.24,118.39c6.72,10.28,20.57,52.89,22.15,58.83S423.25,197,413.27,196.8s-30-12.46-30-12.46,13.41-.66,7.78-19.73l11.21,2.79s-6-16.14-8.71-22c-3.63-7.92-6.46-9.5-6.72-23" />
                <path class="cls-16"
                    d="M407.24,118.39c6.72,10.28,20.57,52.89,22.15,58.83S423.25,197,413.27,196.8s-30-12.46-30-12.46,13.41-.66,7.78-19.73l11.21,2.79s-6-16.14-8.71-22c-3.63-7.92-6.46-9.5-6.72-23" />
            </g>
            <path class="cls-6"
                d="M326.85,120.31c-3.88,6.27-8.81,53.3-8.81,53.3l-3.77,1.69-1.58,4.86s-27.7,11.69-32.44,13.47a34.7,34.7,0,0,1-10.68,1.73s6.33,4.55,7.12,10-.79,12.47-.79,12.47,47.61-16.88,52.53-18.58,14.08-28.17,14.08-28.17Z" />
            <path class="cls-10"
                d="M387.85,417.51s1.85-7.07-.31-9.69c-3.89-4.7.47-8.64-3.43-10.27l-1.63,1.9c-.32-1.93.59-7.78-6.64-8.54-8.74-.92-8.91,5.44-9.38,7.53l.14-2.92c-3.72,0-1.79,3.72-7.45,9.81a16.1,16.1,0,0,0-4.08,12.18Z" />
            <path class="cls-10"
                d="M321.15,417.51c3.52-1.58.29-14.84.29-14.84s4.73-3.18,0-6.47A13.17,13.17,0,0,1,308,398.38s-.93-8.88-6.48-7.74c0,0-1.42,5.63-4.68,8.84-8.83,8.71-20.23,9.71-22.14,13.9-.57,1.26.13,4.13.13,4.13Z" />
            <path class="cls-17"
                d="M336.21,205.85,331.87,215S314,252,303,294.4c-.25,1-5.93,21.08-1.38,71.06L299,374.23l2.83,14.48s-4.26,6.16-4.11,8.18c0,0,10.52,2,14,3.84,2.74,1.47,10.93,9.56,10.93,9.56,2.32-.48,2.53-9.88,2.53-9.88s4.86-83.42,6.25-87,9.94-19.1,23.25-54.57c0,0,.3,49.55,3.86,62.08,3.16,11.15-.59,42.36-.59,42.36L360.13,398s-7.49,7.79-1.41,9.87c0,0,4-7.81,15.62-9.58,5.87-.9,13.2,9.53,13.2,9.53,2.56-.82-1.1-13.93-1.1-13.93,8.2-61.84,2.15-50.64,3.79-80.87,1-19.39,6.55-102.39.09-109.13Z" />
            <g class="cls-18">
                <path class="cls-8"
                    d="M393.42,234.42c-28.94,2.28-54-7.19-64.88-12.14,2.06-4.64,3.33-7.26,3.33-7.26l4.34-9.17,54.12-2C392.66,206.32,393.43,218.69,393.42,234.42Z" />
                <path class="cls-8"
                    d="M354.48,259.45c-13.17,35-21.63,50.35-23,53.93-.79,2.07-2.73,30.4-4.24,54.18-1.74-21.63-3.52-44.46-3.68-48.94-.32-8.91,6.12-21.14,7.09-24.3s-1.22-6.58-1.22-6.58L341,273.13c-.39-5,5.74-26.6,5.74-26.6C350.4,250,353.61,257.33,354.48,259.45Z" />
            </g>
            <path class="cls-6"
                d="M336.21,205.85,331.87,215S314,252,303,294.4c-.25,1-5.93,21.08-1.38,71.06L299,374.23l2.83,14.48s-4.26,6.16-4.11,8.18c0,0,10.52,2,14,3.84,2.74,1.47,10.93,9.56,10.93,9.56,2.32-.48,2.53-9.88,2.53-9.88s4.86-83.42,6.25-87,9.94-19.1,23.25-54.57c0,0,.3,49.55,3.86,62.08,3.16,11.15-.59,42.36-.59,42.36L360.13,398s-7.49,7.79-1.41,9.87c0,0,4-7.81,15.62-9.58,5.87-.9,13.2,9.53,13.2,9.53,2.56-.82-1.1-13.93-1.1-13.93,8.2-61.84,2.15-50.64,3.79-80.87,1-19.39,6.55-102.39.09-109.13Z" />
            <path class="cls-6" d="M354.72,258.82s-6.62-12.77-12.26-16.33" />
            <path class="cls-6" d="M340,238.36s20.1,6.11,27.06,7.3" />
            <path class="cls-6" d="M350.27,217.85c-.87,16.73-6.77,19.58-1.06,23.23,0,0-.16,7.82,2.68,12.78" />
            <path class="cls-6" d="M385.48,211.46S383.1,237.17,391,242" />
            <path class="cls-6" d="M391,219.74s.59,17.12,0,30.92c0,0-2,58.29-4,65.61s3.05,18.37,2.61,50" />
            <path class="cls-6" d="M372,391.09a8.3,8.3,0,0,1,5.54.74" />
            <path class="cls-6" d="M360.13,398a30.49,30.49,0,0,1,8.51-5.84" />
            <path class="cls-6" d="M363.44,262.86c4.44,5,11.47,14.36,18.68,15.15" />
            <path class="cls-6" d="M356.6,254.75c1.36,1.73,2.77,3.42,4.2,5.09" />
            <path class="cls-6" d="M362.93,313s10.09,13.73,15.62,14.53" />
            <path class="cls-6" d="M351.06,256.34s-18,50-24.21,55c0,0-.71,36.79-.91,49.64s-3.17,29.95-3.17,29.95" />
            <path class="cls-6" d="M303.59,390.54s6.92,2.39,10.28,3.92a9.26,9.26,0,0,1,4.55,4.89" />
            <path class="cls-6" d="M321.09,293.28c9.66-6.06,22.37-13.62,27.5-24.28" />
            <path class="cls-6" d="M312.69,298.27q2.73-1.51,5.4-3.14" />
            <path class="cls-6" d="M343.08,224.62c5.19-.08,10.87-.76,15.3-3.69" />
            <path class="cls-6" d="M334.84,224.13c1.49.21,3,.34,4.48.41" />
            <path class="cls-4"
                d="M325.93,131.72c.1,1.54,1.89,4.35,1.89,4.35v0c1.12,16.6,3.11,41.06,5.37,46.51,3.5,8.42-4.6,37.32-4.6,37.32,20.47,8.85,69.67,1,69.67,1s-7.93-25.64-3.71-43.8c1.64-7,3.91-17.44,6.08-27.55,3.43-16,6.61-31.18,6.61-31.18s-9.5-12.91-40.06-14-40.33,15.92-40.33,15.92a17.48,17.48,0,0,0-.91,6" />
            <g class="cls-19">
                <path class="cls-15"
                    d="M325.93,131.72c.1,1.54,1.89,4.35,1.89,4.35v0c1.12,16.6,3.11,41.06,5.37,46.51,3.5,8.42-4.6,37.32-4.6,37.32,20.47,8.85,69.67,1,69.67,1s-7.93-25.64-3.71-43.8c1.64-7,3.91-17.44,6.08-27.55,3.43-16,6.61-31.18,6.61-31.18s-9.5-12.91-40.06-14-40.33,15.92-40.33,15.92a17.48,17.48,0,0,0-.91,6" />
            </g>
            <path class="cls-6"
                d="M325.93,131.72c.1,1.54,1.89,4.35,1.89,4.35v0c1.12,16.6,3.11,41.06,5.37,46.51,3.5,8.42-4.6,37.32-4.6,37.32,20.47,8.85,69.67,1,69.67,1s-7.93-25.64-3.71-43.8c1.64-7,3.91-17.44,6.08-27.55,3.43-16,6.61-31.18,6.61-31.18s-9.5-12.91-40.06-14-40.33,15.92-40.33,15.92a17.48,17.48,0,0,0-.91,6" />
            <path class="cls-13"
                d="M367.18,104.39s-3.24,10.1-13.13,12c-4.17.8-6.05-.49-6.84-2.25-1.08-2.42-.07-5.74-.07-5.74s-.28-.64-.78-1.54c-.24-.43-.52-.91-.85-1.41-1.17-1.82-2.94-3.89-5-4.29-.78-.15-.67-.67.09-1.37,2.87-2.65,14.41-8.73,20.73-6.52A14.69,14.69,0,0,0,367.18,104.39Z" />
            <path class="cls-10"
                d="M347.21,114.14c-1.08-2.42-.07-5.74-.07-5.74s-.28-.64-.78-1.54c4-3.2,8.26-6.09,8.26-6.09S355.12,110.66,347.21,114.14Z" />
            <path class="cls-10" d="M320.5,73.17s1.09,11.94,8.6,17S331.47,70,331.47,70Z" />
            <path class="cls-13"
                d="M361.24,91.41s.49-7.16-.73-11.08c-5.25-16.82-10.66-26.19-28.63-18.69-12.7,5.3-8.06,24-4.07,29.22,2.25,2.91,2.82,6.89,3.75,9.81,1,3.25,9.93,12.63,13.95,11.1,5.13-2,11.29-8.49,10.74-11.7" />
            <path class="cls-10"
                d="M339.69,87.38c.3.86,1,1.39,1.62,1.18s.83-1.08.53-1.94-1-1.39-1.63-1.18S339.38,86.52,339.69,87.38Z" />
            <path class="cls-10"
                d="M330.4,90.14c.3.86,1,1.39,1.62,1.18s.83-1.08.53-1.94-1-1.39-1.63-1.18S330.09,89.28,330.4,90.14Z" />
            <path class="cls-6" d="M342.51,81.77a5.66,5.66,0,0,0-5.32-.45" />
            <path class="cls-6" d="M329.59,84.2s-2.86.28-2.23,2.79" />
            <path class="cls-6" d="M334.42,90.12s-1.71,8.69-.93,9c2.18.91,5.64-2.57,5.64-2.57" />
            <path class="cls-3"
                d="M337.63,101.72a10.59,10.59,0,0,0,6.9-3.64s.48,4.42-2.07,5.21a3.26,3.26,0,0,1-3.8-1.38" />
            <path class="cls-10"
                d="M343.74,70.8s-9.49,2.47-14.15,6.72c0,0-9.35,3.19-11.41-6C316.94,66,324.26,59,324.26,59l-.67,4.26s6.48-8.9,21-8.9c18.28,0,20,16.23,20.15,24.92.2,9.89-3.37,16.18-3.37,16.18l-3-2.13s.39-18-6.53-6.75c0,0,.2-5.52-4.15-7.1S343.74,70.8,343.74,70.8Z" />
            <path class="cls-13" d="M353.58,85.1s1.71-6.39,4.69-3.26.57,12.13-2,11.39-1.41-2-1.41-2" />
            <path class="cls-20"
                d="M398.26,220.92s-49.2,7.85-69.67-1c0,0,8.1-28.9,4.6-37.32-2.26-5.45-4.25-29.91-5.37-46.51v0s9-16.54,16.75-21.45a7.74,7.74,0,0,0,7.32,5.6c6,.29,15.15-9.55,15.15-9.55s23.94,18.64,33.59,38.9c-2.17,10.11-4.44,20.52-6.08,27.55C390.33,195.28,398.26,220.92,398.26,220.92Z" />
            <g class="cls-21">
                <path class="cls-8"
                    d="M396.48,214.12c-10.77-6.6-33.34-21.22-38.1-30.58,0,0-15.66,2.33-18-1.21s-5.57-25.82-5.57-25.82l33.66-1.2,20.44,15.2,2.34-11s-4.58-19.16,0-24.59a79.93,79.93,0,0,1,9.35,14.66c-2.17,10.11-4.44,20.52-6.08,27.55C391.68,189.47,394.43,205.27,396.48,214.12Z" />
            </g>
            <path class="cls-6"
                d="M398.26,220.92s-49.2,7.85-69.67-1c0,0,8.1-28.9,4.6-37.32-2.26-5.45-4.25-29.91-5.37-46.51v0s9-16.54,16.75-21.45a7.74,7.74,0,0,0,7.32,5.6c6,.29,15.15-9.55,15.15-9.55s23.94,18.64,33.59,38.9c-2.17,10.11-4.44,20.52-6.08,27.55C390.33,195.28,398.26,220.92,398.26,220.92Z" />
            <path class="cls-6" d="M318,173.61s5.06-2.54,6.65,0" />
            <path class="cls-6" d="M319,181.53a8.36,8.36,0,0,0,3.73-1.37" />
            <path class="cls-6" d="M312.69,180.16a11.65,11.65,0,0,0,3,1.16" />
            <path class="cls-6" d="M346.58,210a20.34,20.34,0,0,1-4.07.86" />
            <path class="cls-6" d="M375.85,194.89c-8.09,5.21-16.58,10.23-25.54,13.79" />
            <path class="cls-6" d="M383.24,140s5.16,8.82,11.68,8.63" />
            <path class="cls-6" d="M366.58,133.18c-4.84,10.39-12.87,25-25.48,26.83" />
            <path class="cls-6" d="M369.36,126.58c-.42,1.13-.87,2.25-1.34,3.36" />
            <rect class="cls-1" x="226.63" y="194.5" width="40.81" height="19.45" rx="3.54"
                transform="translate(28.23 -30) rotate(7.37)" />
            <rect class="cls-20" x="233.53" y="194.5" width="27.01" height="19.45"
                transform="translate(28.23 -30) rotate(7.37)" />
            <line class="cls-3" x1="233.27" y1="205.41" x2="233.53" y2="203.35" />
            <polyline class="cls-6" points="259.6 212.36 259.18 215.6 232.4 212.14 233.1 206.68" />
            <line class="cls-3" x1="261.01" y1="201.51" x2="260.43" y2="205.96" />
            <polyline class="cls-6" points="234.41 196.62 234.89 192.85 261.68 196.31 261.27 199.45" />
            <path class="cls-10"
                d="M264.54,210.8a1.32,1.32,0,0,1-1.48,1.13,1.3,1.3,0,0,1-1.13-1.47,1.32,1.32,0,1,1,2.61.34Z" />
            <path class="cls-10"
                d="M265.06,201.59a.64.64,0,0,1-.73.56.65.65,0,0,1-.57-.73.66.66,0,0,1,.74-.57A.65.65,0,0,1,265.06,201.59Z" />
            <path class="cls-10" d="M264.73,204.19a.66.66,0,0,1-.74.57.67.67,0,0,1-.57-.74.66.66,0,0,1,1.31.17Z" />
            <path class="cls-10"
                d="M265.46,203.62a.64.64,0,0,1-.56-.73.65.65,0,0,1,.73-.57.66.66,0,0,1,.57.74A.65.65,0,0,1,265.46,203.62Z" />
            <path class="cls-10" d="M262.86,203.29a.66.66,0,0,1-.57-.74A.65.65,0,0,1,263,202a.66.66,0,0,1-.16,1.31Z" />
            <path class="cls-10" d="M229.54,197.65a1.32,1.32,0,1,1,1.14,1.48A1.33,1.33,0,0,1,229.54,197.65Z" />
            <path class="cls-10" d="M229,206.86a.66.66,0,0,1,1.31.17.66.66,0,0,1-.74.57A.67.67,0,0,1,229,206.86Z" />
            <path class="cls-10"
                d="M229.35,204.26a.66.66,0,0,1,.74-.57.65.65,0,0,1,.56.74.64.64,0,0,1-.73.56A.65.65,0,0,1,229.35,204.26Z" />
            <path class="cls-10" d="M228.61,204.82a.66.66,0,0,1,.57.74.67.67,0,0,1-.74.57.66.66,0,0,1,.17-1.31Z" />
            <path class="cls-10" d="M231.22,205.16a.66.66,0,1,1-.74.57A.66.66,0,0,1,231.22,205.16Z" />
            <rect class="cls-10" x="235.18" y="196.24" width="23.71" height="15.97"
                transform="translate(28.23 -30) rotate(7.37)" />
            <rect class="cls-1" x="333.2" y="150.45" width="40.81" height="19.45" rx="3.54"
                transform="translate(-21.29 59.44) rotate(-9.33)" />
            <rect class="cls-20" x="340.09" y="150.45" width="27.01" height="19.45"
                transform="translate(-21.29 59.44) rotate(-9.33)" />
            <line class="cls-3" x1="340.75" y1="165.26" x2="340.41" y2="163.21" />
            <polyline class="cls-6" points="367.97 164.35 368.5 167.58 341.85 171.96 340.96 166.53" />
            <line class="cls-3" x1="366.2" y1="153.56" x2="366.92" y2="157.98" />
            <polyline class="cls-6" points="339.31 156.51 338.7 152.77 365.35 148.39 365.86 151.51" />
            <path class="cls-4" d="M353.29,156.2l.81,6.61a3.36,3.36,0,0,0-.81-6.61Z" />
            <path class="cls-4" d="M352.3,156.32a3.36,3.36,0,0,0,.81,6.61Z" />
            <path class="cls-13"
                d="M249.53,218.82c-2-.11-6.67-5.44-6.67-5.44a13.59,13.59,0,0,1,2.55-.54c2.51-.12,6.18,4,6.18,4" />
            <path class="cls-13"
                d="M255.9,219.42c-4,.06-7.09-4.84-7.09-4.84a3.28,3.28,0,0,1,1.45-.87c2.41-.69,5.4,2.72,5.4,2.72" />
            <path class="cls-12" d="M391,164.61c-3.89-1.76-16.42,14.91-7.78,19.73S402.31,169.72,391,164.61Z" />
            <path class="cls-13"
                d="M374.59,156.19a32,32,0,0,1,7.42,5.74c3.41,3.62,14.18,5.77,14.18,5.77l-4.59,14.64L380.46,177s-5.49,2.69-8.7-2.64C369.86,171.2,374.59,156.19,374.59,156.19Z" />
            <path class="cls-13"
                d="M377.45,172.73c-.88,3.23-2.07,4.26-9.63,2.71-1.91-.4-.81-2.38-.81-2.38s-2.81-.72-2.36-3.07c0,0-5.06.5-5.06-.9s4.2-3.85,4.2-3.85-8,2.46-.63-4.35c0,0,8.63-5.29,11.43-4.7,1,.21,1.79,1.91,2.34,4.17" />
            <path class="cls-6" d="M363.79,165.24a29.22,29.22,0,0,1,5.28-2.1,19.22,19.22,0,0,0,3.62-1.21" />
            <path class="cls-6" d="M364.65,170s4.73-1.23,8-1.75" />
            <path class="cls-6" d="M367,173.06s3.4-.44,4.75-.66" />
            <path class="cls-4"
                d="M407.24,118.39c6.72,10.28,20.57,52.89,22.15,58.83S423.25,197,413.27,196.8s-30-12.46-30-12.46,13.41-.66,7.78-19.73l11.21,2.79s-6-16.14-8.71-22c-3.63-7.92-6.46-9.5-6.72-23" />
            <g class="cls-22">
                <path class="cls-15"
                    d="M407.24,118.39c6.72,10.28,20.57,52.89,22.15,58.83S423.25,197,413.27,196.8s-30-12.46-30-12.46,13.41-.66,7.78-19.73l11.21,2.79s-6-16.14-8.71-22c-3.63-7.92-6.46-9.5-6.72-23" />
            </g>
            <path class="cls-6"
                d="M407.24,118.39c6.72,10.28,20.57,52.89,22.15,58.83S423.25,197,413.27,196.8s-30-12.46-30-12.46,13.41-.66,7.78-19.73l11.21,2.79s-6-16.14-8.71-22c-3.63-7.92-6.46-9.5-6.72-23" />
            <path class="cls-6" d="M402.23,167.4s12.13,0,15.29,6.21" />
            <path class="cls-6" d="M417,168.83a8.58,8.58,0,0,1,2.61,1.68" />
            <path class="cls-6" d="M408.32,168.1a18.4,18.4,0,0,1,5-.16" />
        </g>
    </g>
</svg>