<svg xmlns="http://www.w3.org/2000/svg" xmlns:xlink="http://www.w3.org/1999/xlink" viewBox="0 0 392.91 359.72"><defs><style>.cls-1,.cls-10{fill:#bfbfbf;}.cls-1,.cls-18,.cls-2,.cls-3,.cls-4,.cls-7,.cls-8{stroke:#263238;}.cls-1,.cls-18,.cls-19,.cls-2,.cls-3,.cls-4,.cls-7{stroke-linecap:round;stroke-linejoin:round;}.cls-2,.cls-22,.cls-5{fill:#ffb657;}.cls-15,.cls-20,.cls-3,.cls-6{fill:#fff;}.cls-27,.cls-4{fill:#999;}.cls-6{opacity:0.7;}.cls-19,.cls-7,.cls-8{fill:none;}.cls-8{stroke-miterlimit:10;}.cls-9{fill:#263238;}.cls-11{clip-path:url(#clip-path);}.cls-12{opacity:0.2;}.cls-13{clip-path:url(#clip-path-2);}.cls-14,.cls-15{fill-opacity:0.7;opacity:0.3;}.cls-16{clip-path:url(#clip-path-3);}.cls-17{clip-path:url(#clip-path-4);}.cls-18{fill:#757575;}.cls-19{stroke:#fff;}.cls-21{clip-path:url(#clip-path-5);}.cls-22{opacity:0.4;}.cls-23{clip-path:url(#clip-path-6);}.cls-24{clip-path:url(#clip-path-7);}.cls-25{clip-path:url(#clip-path-8);}.cls-26{clip-path:url(#clip-path-9);}.cls-28{clip-path:url(#clip-path-10);}.cls-29{clip-path:url(#clip-path-11);}.cls-30{clip-path:url(#clip-path-12);}.cls-31{clip-path:url(#clip-path-13);}</style><clipPath id="clip-path"><path class="cls-1" d="M127.57,163.7l4,8.48s16.53,34.18,26.67,73.32c.24.93,5.48,19.47,1.27,65.64l2.4,8.1-2.62,13.38s3.94,5.69,3.8,7.55c0,0-9.72,1.81-12.95,3.55-2.53,1.36-10.1,8.83-10.1,8.83-2.14-.44-2.33-9.12-2.33-9.12s-4.5-77.07-5.78-80.39-9.18-17.64-21.47-50.41c0,0-.28,45.77-3.57,57.35-2.92,10.3.54,39.13.54,39.13l-2,32.09s6.91,7.19,1.3,9.12c0,0-3.74-7.21-14.42-8.85-5.43-.84-12.2,8.8-12.2,8.8-2.37-.76,1-12.87,1-12.87-7.57-57.12-2-46.78-3.49-74.7-1-17.92-6.06-94.58-.09-100.81Z"/></clipPath><clipPath id="clip-path-2"><path class="cls-2" d="M142.5,19.77h22a1.88,1.88,0,0,1,1.88,1.88v15.7a0,0,0,0,1,0,0H140.62a0,0,0,0,1,0,0V21.65A1.88,1.88,0,0,1,142.5,19.77Z" transform="translate(-1.98 14.22) rotate(-5.27)"/></clipPath><clipPath id="clip-path-3"><path class="cls-2" d="M180.34,16.28h22a1.88,1.88,0,0,1,1.88,1.88v15.7a0,0,0,0,1,0,0H178.46a0,0,0,0,1,0,0V18.16a1.88,1.88,0,0,1,1.88-1.88Z" transform="translate(-1.49 17.69) rotate(-5.27)"/></clipPath><clipPath id="clip-path-4"><path class="cls-2" d="M245.67,25.21l6.63,71.88L136.49,107.78l-6.64-71.89A4.55,4.55,0,0,1,134,30.94l106.76-9.85A4.55,4.55,0,0,1,245.67,25.21Z"/></clipPath><clipPath id="clip-path-5"><path class="cls-3" d="M302.94,310.92s-13-4.79-15.55,4.79c0,0,2.32,10.55.93,16.32s-8.38,16.79-8.82,18.88c-.84,4.1-.2,4.38-.2,4.38s5.09,2.94,11.92-.21,18.68-16.71,20.54-19.5-5.8-13.83-5.8-13.83Z"/></clipPath><clipPath id="clip-path-6"><path class="cls-2" d="M183.33,140.39h22a1.88,1.88,0,0,1,1.88,1.88V158a0,0,0,0,1,0,0H181.45a0,0,0,0,1,0,0v-15.7a1.88,1.88,0,0,1,1.88-1.88Z" transform="matrix(1, 0.09, -0.09, 1, 13.5, -16.1)"/></clipPath><clipPath id="clip-path-7"><path class="cls-2" d="M221.19,143.65h22a1.88,1.88,0,0,1,1.88,1.88v15.7a0,0,0,0,1,0,0H219.31a0,0,0,0,1,0,0v-15.7A1.88,1.88,0,0,1,221.19,143.65Z" transform="translate(13.91 -19.33) rotate(4.91)"/></clipPath><clipPath id="clip-path-8"><path class="cls-2" d="M285.64,162.18l-6.18,71.93-115.88-10,6.18-71.92a4.55,4.55,0,0,1,4.93-4.14l106.81,9.18A4.54,4.54,0,0,1,285.64,162.18Z"/></clipPath><clipPath id="clip-path-9"><path class="cls-3" d="M337.25,324.6s-5.54-4-17-3.16c0,0-.83,13.75-2.39,17.75s-9.79,10.93-11.31,12.12-1.53,5.34-1.53,5.34h34.81A109.61,109.61,0,0,0,337.05,339Z"/></clipPath><clipPath id="clip-path-10"><path class="cls-4" d="M346.13,184s-22.21,4.35-44-2.71A63,63,0,0,1,288,174.78s.06-1.4.1-3.69c.18-8.94.13-31.43-4.58-37-3-3.51-5.35-25.21.44-36.18l17.71-14.24c24.52,4.79,29.7,11.28,33.75,25.28.75,2.56,1.45,5.37,2.23,8.47.85,3.38,1.65,7.51,2.41,12.05C343.74,151.81,346.13,184,346.13,184Z"/></clipPath><clipPath id="clip-path-11"><path class="cls-2" d="M162.79,273.1h22a1.88,1.88,0,0,1,1.88,1.88v15.7a0,0,0,0,1,0,0H160.91a0,0,0,0,1,0,0V275A1.88,1.88,0,0,1,162.79,273.1Z"/></clipPath><clipPath id="clip-path-12"><path class="cls-2" d="M200.79,273.1h22a1.88,1.88,0,0,1,1.88,1.88v15.7a0,0,0,0,1,0,0H198.91a0,0,0,0,1,0,0V275A1.88,1.88,0,0,1,200.79,273.1Z"/></clipPath><clipPath id="clip-path-13"><path class="cls-2" d="M265.87,287v72.19H149.56V287a4.55,4.55,0,0,1,4.55-4.55H261.32A4.55,4.55,0,0,1,265.87,287Z"/></clipPath></defs><g id="Layer_2" data-name="Layer 2"><g id="Background_Simple" data-name="Background Simple"><path class="cls-5" d="M56.47,28.26C69.92,12.18,88.1-.26,109.78,0c37,.46,57,33.21,78.22,58.47,11,13.1,23.49,25.74,39.83,31.9,24.52,9.23,51.82,3.84,75.7-4.73,10.7-3.84,23.37-9.24,35.42-6.48,36.63,8.38,32.81,53.09,26.76,81.39-8.17,38.21-21.45,78.9-48.36,108.27C252.93,339.11,137,296,78.86,239.93c-4.27-4.12-8.37-8.43-12.22-13a180.13,180.13,0,0,1-25.16-38.44C22.74,149.59,20.16,102.24,36.4,62A128,128,0,0,1,56.47,28.26Z"/><path class="cls-6" d="M56.47,28.26C69.92,12.18,88.1-.26,109.78,0c37,.46,57,33.21,78.22,58.47,11,13.1,23.49,25.74,39.83,31.9,24.52,9.23,51.82,3.84,75.7-4.73,10.7-3.84,23.37-9.24,35.42-6.48,36.63,8.38,32.81,53.09,26.76,81.39-8.17,38.21-21.45,78.9-48.36,108.27C252.93,339.11,137,296,78.86,239.93c-4.27-4.12-8.37-8.43-12.22-13a180.13,180.13,0,0,1-25.16-38.44C22.74,149.59,20.16,102.24,36.4,62A128,128,0,0,1,56.47,28.26Z"/></g><g id="Floor"><line class="cls-7" x1="0.5" y1="359.22" x2="392.41" y2="359.22"/></g><g id="Window"><polyline class="cls-7" points="238.43 156.59 238.43 9.45 247.54 9.45"/><line class="cls-7" x1="238.43" y1="174.1" x2="238.43" y2="170.2"/><polyline class="cls-7" points="270.97 9.45 364.97 9.45 364.97 187.82 238.43 187.82"/><line class="cls-7" x1="259.44" y1="9.45" x2="267.7" y2="9.45"/><rect class="cls-7" x="243.19" y="14.2" width="117.03" height="168.87"/><polyline class="cls-7" points="354.77 23.25 354.77 93.37 248.63 93.37 248.63 88.79"/><polyline class="cls-7" points="248.63 78.07 248.63 19.18 354.77 19.18"/><line class="cls-7" x1="248.63" y1="85.28" x2="248.63" y2="80.83"/><line class="cls-7" x1="336.85" y1="98.63" x2="360.21" y2="98.63"/><line class="cls-7" x1="328.54" y1="98.63" x2="331.85" y2="98.63"/><line class="cls-7" x1="243.19" y1="98.63" x2="324.59" y2="98.63"/><polyline class="cls-7" points="295.82 93.37 295.82 90.95 305.61 90.95 305.61 92.33 301.7 92.33 301.7 93.37"/><path class="cls-7" d="M243.39,161.83s1.62,1.22,2.76,8.66c0,0,2-11.87,4.35-12.06s1.9,7.73,1.9,7.73.39-3.9,2.26-3.72,0,8.05,0,8.05,2.24-6.14,4.36-6-1.41,11.12-1.41,11.12,5.44-3.94,7.65-2-1.23,6.78-1.23,6.78,7.8-1.69,9,2.89"/><path class="cls-7" d="M273.05,178.8s3.4-2.22,6.07-1.19c0,0-1.7-2.59,0-4.17s3.89,4.17,3.89,4.17.24-9.65,3.64-9.16,0,9.16,0,9.16,6.08-5.38,7.54-3.51-1,4.7-1,4.7a6.57,6.57,0,0,1,6.32,1.55s4.07-4.15,8.6-4.75c0,0-3-8.73-1.55-10.49s4.1,7.62,4.1,7.62,1.16-6.1,5-6.57c0,0-3.16-1.73-2.23-4.33s5.31.61,5.31.61-1.79-4.59,1-5.85,4,3.84,4,3.84.79-5.34,4.13-5.05,2.26,6.45,2.26,6.45,3.15-4.89,4.84-4.4c3.38,1,2.35,8.73,2.35,8.73s4.71-3.28,5.92-1.77-4.89,5.81-4.89,5.81,4.66.52,7.57,3.24"/><path class="cls-7" d="M360.21,163.59s-.53-4.9-5.44-5.16,1.35,10.75,1.35,10.75-4-3.35-5.5-2.32,4.15,6.71,4.15,6.71-2.69-2.49-5.52-1.72,1.62,8.66,1.62,8.66A20.26,20.26,0,0,0,338.41,182"/></g><g id="Table"><line class="cls-7" x1="193.14" y1="315.44" x2="193.14" y2="358.96"/><line class="cls-7" x1="193.14" y1="301.2" x2="193.14" y2="310.52"/><polyline class="cls-7" points="9.95 359.22 9.95 278.12 193.15 278.12 193.15 295.92"/><polyline class="cls-7" points="36.63 286.99 20.74 286.99 20.74 351.78"/><polyline class="cls-7" points="182.35 358.96 182.35 286.99 45.87 286.99"/><line class="cls-7" x1="174.73" y1="269.72" x2="169.68" y2="269.72"/><polyline class="cls-7" points="162.44 269.72 5.39 269.72 5.39 278.06 197.7 278.06 197.7 269.72 177.95 269.72"/><path class="cls-7" d="M16.22,216.28s15.05,1.19,15.68,12.29C31.9,228.57,16.66,235.59,16.22,216.28Z"/><path class="cls-7" d="M46,219s8.41-11.37,22-5.54C68,213.5,59.7,227.24,46,219Z"/><path class="cls-7" d="M66.84,183.14S69.26,205,49.35,199C49.35,199,55.67,182.91,66.84,183.14Z"/><path class="cls-7" d="M42.4,171s15.74,8.49,4.17,21.37C46.57,192.34,35.52,183.14,42.4,171Z"/><path class="cls-7" d="M23,190.51s17.12-1.73,17.12,14.12C40.14,204.63,23,205.31,23,190.51Z"/><path class="cls-7" d="M35.85,237.52c-.25-5.32-.24-12.16,3-19.39,7.5-16.68,10-30.73,6.12-40.63"/><path class="cls-7" d="M28.65,194.77s10.26,4.08,13.75,14.65"/><path class="cls-7" d="M61.43,191.89s-5.93,8.08-16,7.21"/><path class="cls-7" d="M61.43,215.82S45,220.55,38.48,219"/><path class="cls-7" d="M21.13,221.28s7.34,8.06,14.72,7.93"/><path class="cls-8" d="M55.38,237.52H19.69a.87.87,0,0,0-.87.87v2.71a.87.87,0,0,0,.87.87h1l3.18,27.75H51.16L54.34,242h1a.87.87,0,0,0,.87-.87v-2.71A.87.87,0,0,0,55.38,237.52Z"/><line class="cls-7" x1="23.02" y1="241.97" x2="43.78" y2="241.97"/><line class="cls-7" x1="47.7" y1="241.97" x2="50.82" y2="241.97"/></g><g id="Character_2" data-name="Character 2"><path class="cls-9" d="M79.86,359.22s-1.71-6.53.29-9c3.59-4.34-.44-8,3.16-9.49l1.51,1.75c.3-1.77-.54-7.18,6.14-7.88,8.07-.85,8.23,5,8.66,7l-.13-2.71c3.44,0,1.66,3.44,6.88,9.07a14.89,14.89,0,0,1,3.77,11.25Z"/><path class="cls-9" d="M141.47,359.22c-3.25-1.45-.26-13.71-.26-13.71s-4.37-2.93,0-6a12.16,12.16,0,0,0,12.41,2s.86-8.2,6-7.15c0,0,1.31,5.2,4.32,8.17,8.15,8,18.69,9,20.45,12.84.53,1.16-.11,3.81-.11,3.81Z"/><path class="cls-10" d="M127.57,163.7l4,8.48s16.53,34.18,26.67,73.32c.24.93,5.48,19.47,1.27,65.64l2.4,8.1-2.62,13.38s3.94,5.69,3.8,7.55c0,0-9.72,1.81-12.95,3.55-2.53,1.36-10.1,8.83-10.1,8.83-2.14-.44-2.33-9.12-2.33-9.12s-4.5-77.07-5.78-80.39-9.18-17.64-21.47-50.41c0,0-.28,45.77-3.57,57.35-2.92,10.3.54,39.13.54,39.13l-2,32.09s6.91,7.19,1.3,9.12c0,0-3.74-7.21-14.42-8.85-5.43-.84-12.2,8.8-12.2,8.8-2.37-.76,1-12.87,1-12.87-7.57-57.12-2-46.78-3.49-74.7-1-17.92-6.06-94.58-.09-100.81Z"/><g class="cls-11"><path class="cls-12" d="M74.72,190.1c26.73,2.1,49.89-6.65,59.93-11.22-1.9-4.28-3.08-6.7-3.08-6.7l-4-8.47-50-1.82C75.42,164.14,74.71,175.57,74.72,190.1Z"/><path class="cls-12" d="M110.69,213.22c12.16,32.35,20,46.51,21.25,49.82.73,1.91,2.52,28.08,3.92,50,1.61-20,3.25-41.07,3.4-45.2.29-8.23-5.65-19.53-6.55-22.45s1.13-6.08,1.13-6.08l-10.71-13.5c.36-4.58-5.3-24.57-5.3-24.57C114.46,204.47,111.49,211.26,110.69,213.22Z"/></g><path class="cls-7" d="M127.57,163.7l4,8.48s16.53,34.18,26.67,73.32c.24.93,5.48,19.47,1.27,65.64l2.4,8.1-2.62,13.38s3.94,5.69,3.8,7.55c0,0-9.72,1.81-12.95,3.55-2.53,1.36-10.1,8.83-10.1,8.83-2.14-.44-2.33-9.12-2.33-9.12s-4.5-77.07-5.78-80.39-9.18-17.64-21.47-50.41c0,0-.28,45.77-3.57,57.35-2.92,10.3.54,39.13.54,39.13l-2,32.09s6.91,7.19,1.3,9.12c0,0-3.74-7.21-14.42-8.85-5.43-.84-12.2,8.8-12.2,8.8-2.37-.76,1-12.87,1-12.87-7.57-57.12-2-46.78-3.49-74.7-1-17.92-6.06-94.58-.09-100.81Z"/><path class="cls-7" d="M110.47,212.63s6.11-11.79,11.32-15.08"/><path class="cls-7" d="M124.08,193.73s-18.56,5.65-25,6.74"/><path class="cls-7" d="M114.58,174.79c.8,15.45,6.25,18.08,1,21.45,0,0,.14,7.23-2.48,11.81"/><path class="cls-7" d="M82.05,168.88s2.2,23.75-5.11,28.22"/><path class="cls-7" d="M76.94,176.54s-.55,15.81,0,28.55c0,0,1.82,53.85,3.65,60.61s-2.81,17-2.41,46.22"/><path class="cls-7" d="M94.48,334.82a7.62,7.62,0,0,0-5.12.68"/><path class="cls-7" d="M105.47,341.2a28.1,28.1,0,0,0-7.87-5.39"/><path class="cls-7" d="M102.41,216.36c-4.1,4.6-10.59,13.27-17.25,14"/><path class="cls-7" d="M108.73,208.88c-1.26,1.59-2.56,3.15-3.88,4.7"/><path class="cls-7" d="M102.88,262.7s-9.32,12.69-14.43,13.42"/><path class="cls-7" d="M113.85,210.34s16.59,46.23,22.36,50.79c0,0,.66,34,.84,45.87S140,334.65,140,334.65"/><path class="cls-7" d="M157.7,334.31s-6.4,2.21-9.5,3.62a8.58,8.58,0,0,0-4.21,4.51"/><path class="cls-7" d="M141.53,244.46c-8.92-5.59-20.67-12.58-25.4-22.43"/><path class="cls-7" d="M149.29,249.08q-2.52-1.41-5-2.91"/><path class="cls-7" d="M121.22,181c-4.8-.07-10-.7-14.14-3.41"/><path class="cls-7" d="M128.83,180.59c-1.37.19-2.76.31-4.14.38"/><path class="cls-9" d="M137.71,74.43c-3.66-5.54-22.31-7-34.28-7s-26.49-2-33.06,11.5c-5,10.31,6.53,64.83,6.53,64.83l-2.83,23.54c21.68,6.8,58.83,5.3,58.83,5.3l-5-21.28S141.37,80,137.71,74.43Z"/><path class="cls-3" d="M96.33,53.79s1.6,12.83-3.28,15.6c0,0,2.44,9.41,11,10s12.35-8.62,12.35-8.62Z"/><path class="cls-5" d="M142.5,19.77h22a1.88,1.88,0,0,1,1.88,1.88v15.7a0,0,0,0,1,0,0H140.62a0,0,0,0,1,0,0V21.65A1.88,1.88,0,0,1,142.5,19.77Z" transform="translate(-1.98 14.22) rotate(-5.27)"/><g class="cls-13"><path class="cls-14" d="M142.5,19.77h22a1.88,1.88,0,0,1,1.88,1.88v15.7a0,0,0,0,1,0,0H140.62a0,0,0,0,1,0,0V21.65A1.88,1.88,0,0,1,142.5,19.77Z" transform="translate(-1.98 14.22) rotate(-5.27)"/><rect class="cls-15" x="158.51" y="20.66" width="6.33" height="12.66" transform="translate(-1.8 14.97) rotate(-5.27)"/></g><path class="cls-7" d="M142.5,19.77h22a1.88,1.88,0,0,1,1.88,1.88v15.7a0,0,0,0,1,0,0H140.62a0,0,0,0,1,0,0V21.65A1.88,1.88,0,0,1,142.5,19.77Z" transform="translate(-1.98 14.22) rotate(-5.27)"/><path class="cls-5" d="M180.34,16.28h22a1.88,1.88,0,0,1,1.88,1.88v15.7a0,0,0,0,1,0,0H178.46a0,0,0,0,1,0,0V18.16a1.88,1.88,0,0,1,1.88-1.88Z" transform="translate(-1.49 17.69) rotate(-5.27)"/><g class="cls-16"><path class="cls-14" d="M180.34,16.28h22a1.88,1.88,0,0,1,1.88,1.88v15.7a0,0,0,0,1,0,0H178.46a0,0,0,0,1,0,0V18.16a1.88,1.88,0,0,1,1.88-1.88Z" transform="translate(-1.49 17.69) rotate(-5.27)"/><rect class="cls-15" x="198.43" y="17.1" width="3.82" height="12.66" transform="translate(-1.3 18.51) rotate(-5.27)"/></g><path class="cls-7" d="M180.34,16.28h22a1.88,1.88,0,0,1,1.88,1.88v15.7a0,0,0,0,1,0,0H178.46a0,0,0,0,1,0,0V18.16a1.88,1.88,0,0,1,1.88-1.88Z" transform="translate(-1.49 17.69) rotate(-5.27)"/><path class="cls-2" d="M172.37,17h22a1.88,1.88,0,0,1,1.88,1.88V34.6a0,0,0,0,1,0,0H170.49a0,0,0,0,1,0,0V18.9A1.88,1.88,0,0,1,172.37,17Z" transform="translate(-1.6 16.96) rotate(-5.27)"/><path class="cls-2" d="M210.21,13.52h22A1.88,1.88,0,0,1,234,15.4v15.7a0,0,0,0,1,0,0H208.33a0,0,0,0,1,0,0V15.4a1.88,1.88,0,0,1,1.88-1.88Z" transform="translate(-1.11 20.42) rotate(-5.27)"/><rect class="cls-15" x="188.38" y="17.91" width="6.33" height="12.66" transform="translate(-1.42 17.71) rotate(-5.27)"/><rect class="cls-15" x="225.81" y="14.45" width="6.33" height="12.66" transform="translate(-0.94 21.13) rotate(-5.27)"/><path class="cls-5" d="M245.67,25.21l6.63,71.88L136.49,107.78l-6.64-71.89A4.55,4.55,0,0,1,134,30.94l106.76-9.85A4.55,4.55,0,0,1,245.67,25.21Z"/><g class="cls-17"><path class="cls-14" d="M245.67,25.21l6.63,71.88L136.49,107.78l-6.64-71.89A4.55,4.55,0,0,1,134,30.94l106.76-9.85A4.55,4.55,0,0,1,245.67,25.21Z"/></g><path class="cls-7" d="M245.67,25.21l6.63,71.88L136.49,107.78l-6.64-71.89A4.55,4.55,0,0,1,134,30.94l106.76-9.85A4.55,4.55,0,0,1,245.67,25.21Z"/><path class="cls-2" d="M245.67,25.21l6.63,71.88L166.36,105l-6.64-71.88a4.55,4.55,0,0,1,4.12-4.95l76.88-7.1A4.55,4.55,0,0,1,245.67,25.21Z"/><path class="cls-15" d="M240.09,28.3l-73.47,6.78a1.89,1.89,0,0,1-2-1.7h0a1.88,1.88,0,0,1,1.7-2l73.47-6.78a1.87,1.87,0,0,1,2,1.7h0A1.87,1.87,0,0,1,240.09,28.3Z"/><path class="cls-9" d="M111,28.35S94,25,92.15,35.86s4.32,15.55,4.32,15.55Z"/><path class="cls-3" d="M96.5,57.4a29.33,29.33,0,0,1-.87-16.89c1.66-7,10-16.63,22.64-7.88,6.52,4.51,6.92,14.3,4.89,23.26-.49,2.14-.12,4.23-.83,6.2-2.5,6.9-7.07,12.21-9.57,12.33-4.18.21-12.52-4.84-12.17-9.24"/><path class="cls-7" d="M113.34,54.23s-3.37-2.44-6.61-.44"/><path class="cls-7" d="M119.71,53.79s2.54-2.34,4.2-2"/><path class="cls-9" d="M108.58,58c0,.62.32,1.13.71,1.13s.7-.51.7-1.13-.31-1.12-.7-1.12S108.58,57.35,108.58,58Z"/><ellipse class="cls-9" cx="119.71" cy="57.35" rx="0.71" ry="1.12"/><path class="cls-7" d="M118.28,56.15c-1.25,1.62.5,7.79,0,8.23s-3.68-.81-3.68-.81-.75-.94.81-1.44"/><path class="cls-7" d="M115.4,67.48s-4.27,0-5.41-1.55"/><path class="cls-18" d="M105.23,44.37l-.33,5.16s-3.66,1.89-4.58,3.81a7.67,7.67,0,0,0-.58,4s-2.22-3.88-3.41-3.56c-.43.11-.43,1.74-.43,1.74s-5-11.16-.48-17.06S105.23,44.37,105.23,44.37Z"/><path class="cls-3" d="M98.18,56.23s-1-3.75-4.36-4.74-1.06,8,1.81,9.17,3.59,2,3.76.93"/><path class="cls-9" d="M93.59,43.72c-.27-.38-1.51-10,4.83-14.32s17.09-3.86,23.92,2.12,4.88,16.35,0,19.89V47.08s-2.25,4.34-9,4.7l2.06-3.18s-3.31,2-9.17,1.84c0,0,2.75-2.2,2.35-4.15C108.58,46.29,99.29,51.52,93.59,43.72Z"/><path class="cls-3" d="M94.78,78.4c-4.68.56-11.33,6.67-7,17.52,2.77,6.88,25.52,2.79,25.52,2.79,8.44-3.47,20.77-16,29.82-21.81,0,0-1.91-12-4.11-10.3-10.22,7.83-18.64,8.37-32.9,15.23C106.15,81.83,97.73,78.05,94.78,78.4Z"/><path class="cls-3" d="M105.23,91.72c-.14,4.48,1.71,5.27,4.81,6.33"/><path class="cls-3" d="M138.34,67.48c.21-.65,4-7.31,5.07-9s5.86-3.22,7.7-4.24,2-2.57,3-1.46,0,3.64-5.54,6.33a53.34,53.34,0,0,0,5.9,0c1.48-.22,2.8-1.56,3.46-.63s.79,2.6-2.5,3.62a17.16,17.16,0,0,1-4.88,1,33.79,33.79,0,0,1,4.74,1.38c.53.39,1.32,1.3,2.11,1.44s1.65,1,.2,2a3.58,3.58,0,0,1-3.36.06s3.82,1.85,2.64,3-5,.92-5,.92-5.68,6.86-10.42,5.41"/><path class="cls-7" d="M145.11,58.47a1.8,1.8,0,0,1,1.39,1.34c.33,1.18,1.29,1.25,1.89,2.57s.42,3.36,1,4.06,0,3.65,0,3.65"/><path class="cls-19" d="M95.77,77.55c-2.46-3.12-8-1.71-8-1.71"/><path class="cls-19" d="M84.82,70.09s5.65.83,7.33,5.54"/><path class="cls-19" d="M94.78,99.91s-5.51,4.27-13.92-1.86"/><path class="cls-19" d="M87.82,101.2S85,105.07,78.19,105"/><path class="cls-19" d="M122.89,149.89s-14.44,11.51-29.11,10"/><path class="cls-19" d="M83.86,124.6s22.42,16.44,39,17.49"/></g><g id="Character_3" data-name="Character 3"><path class="cls-9" d="M275.17,126.88l-4.05,21.74-32.61,19.82,4.5,8.28s37.72-11.5,38.63-14.19,9.62-31.17,9.62-31.17Z"/><path class="cls-4" d="M289.41,90.12l-2.18,26.36-1.15,13.83c-6.29,3.06-12.44-1.54-12.82-1.84h0C275,123.45,277,95.12,289.41,90.12Z"/><path class="cls-9" d="M287.23,116.48l-1.15,13.83c-6.29,3.06-12.44-1.54-12.82-1.84.27.12,3.58,1.52,5.73,0a16.78,16.78,0,0,1-2-2.64c-.13-.52,2-.66,2-.66s-1.4-11.21,2.33-16C282.78,107.35,285.06,111.15,287.23,116.48Z"/><path class="cls-2" d="M312.05,334.23l1,2.94a59.51,59.51,0,0,1-5.08,7.14s-1-.32-2.65,1.13a6.13,6.13,0,0,0-1.76,3.76s-7.63,9.16-17.33,9.29-6.77-4.74-6.77-4.74Z"/><path class="cls-20" d="M302.94,310.92s-13-4.79-15.55,4.79c0,0,2.32,10.55.93,16.32s-8.38,16.79-8.82,18.88c-.84,4.1-.2,4.38-.2,4.38s5.09,2.94,11.92-.21,18.68-16.71,20.54-19.5-5.8-13.83-5.8-13.83Z"/><g class="cls-21"><path class="cls-22" d="M302.94,310.92s-13-4.79-15.55,4.79c0,0,2.32,10.55.93,16.32s-8.38,16.79-8.82,18.88c-.84,4.1-.2,4.38-.2,4.38s5.09,2.94,11.92-.21,18.68-16.71,20.54-19.5-5.8-13.83-5.8-13.83Z"/></g><path class="cls-7" d="M302.94,310.92s-13-4.79-15.55,4.79c0,0,2.32,10.55.93,16.32s-8.38,16.79-8.82,18.88c-.84,4.1-.2,4.38-.2,4.38s5.09,2.94,11.92-.21,18.68-16.71,20.54-19.5-5.8-13.83-5.8-13.83Z"/><path class="cls-7" d="M296.29,324.47a28.23,28.23,0,0,1-3.25,18.8"/><path class="cls-2" d="M293,345.77a8.77,8.77,0,0,1-5.57,5.14,15.47,15.47,0,0,1-8,0l3.13-6.32A19.92,19.92,0,0,0,293,345.77Z"/><path class="cls-7" d="M294.87,342s-6.79.41-10.35-1"/><path class="cls-7" d="M296.13,338.21s-6.35,1-9.9-1"/><path class="cls-7" d="M297.22,334s-5.58.82-9.21-.91"/><path class="cls-7" d="M297.83,329.32s-6.19,1.94-9.13,0"/><path class="cls-2" d="M298.76,317.66l1.09,6.81s-8.2,5.41-13.62-1.35l0-7.11S288.26,320.81,298.76,317.66Z"/><path class="cls-9" d="M291.64,164.78c-8.31,26.33-34.1,68.57-31.48,79.37,1.43,5.9,9.94,39.33,16.59,54,2.54,5.61,8,9.36,8,9.36L288.7,316c9.63,4.19,13.08-4.33,13.08-4.33l-1.93-9.6c5.16-9.38,2.95-9.38-3.72-58-.78-5.73,12.5-23.44,12.5-23.44l6.83,44.54,1.11,36.5L320.12,313s.87,10.59.8,11.23h15.82l1.75-11.64s7.35-6.93,7.35-14.93-1.58-48.75,0-60.62-3.71-67.21-3.71-67.21Z"/><path class="cls-5" d="M183.33,140.39h22a1.88,1.88,0,0,1,1.88,1.88V158a0,0,0,0,1,0,0H181.45a0,0,0,0,1,0,0v-15.7a1.88,1.88,0,0,1,1.88-1.88Z" transform="matrix(1, 0.09, -0.09, 1, 13.5, -16.1)"/><g class="cls-23"><path class="cls-14" d="M183.33,140.39h22a1.88,1.88,0,0,1,1.88,1.88V158a0,0,0,0,1,0,0H181.45a0,0,0,0,1,0,0v-15.7a1.88,1.88,0,0,1,1.88-1.88Z" transform="matrix(1, 0.09, -0.09, 1, 13.5, -16.1)"/><rect class="cls-15" x="199.49" y="142.76" width="6.33" height="12.66" transform="translate(13.52 -16.81) rotate(4.91)"/></g><path class="cls-7" d="M183.33,140.39h22a1.88,1.88,0,0,1,1.88,1.88V158a0,0,0,0,1,0,0H181.45a0,0,0,0,1,0,0v-15.7a1.88,1.88,0,0,1,1.88-1.88Z" transform="matrix(1, 0.09, -0.09, 1, 13.5, -16.1)"/><path class="cls-5" d="M221.19,143.65h22a1.88,1.88,0,0,1,1.88,1.88v15.7a0,0,0,0,1,0,0H219.31a0,0,0,0,1,0,0v-15.7A1.88,1.88,0,0,1,221.19,143.65Z" transform="translate(13.91 -19.33) rotate(4.91)"/><g class="cls-24"><path class="cls-14" d="M221.19,143.65h22a1.88,1.88,0,0,1,1.88,1.88v15.7a0,0,0,0,1,0,0H219.31a0,0,0,0,1,0,0v-15.7A1.88,1.88,0,0,1,221.19,143.65Z" transform="translate(13.91 -19.33) rotate(4.91)"/><rect class="cls-15" x="239.44" y="146.09" width="3.82" height="12.66" transform="translate(13.94 -20.12) rotate(4.91)"/></g><path class="cls-7" d="M221.19,143.65h22a1.88,1.88,0,0,1,1.88,1.88v15.7a0,0,0,0,1,0,0H219.31a0,0,0,0,1,0,0v-15.7A1.88,1.88,0,0,1,221.19,143.65Z" transform="translate(13.91 -19.33) rotate(4.91)"/><path class="cls-2" d="M213.22,143h22a1.88,1.88,0,0,1,1.88,1.88v15.7a0,0,0,0,1,0,0H211.34a0,0,0,0,1,0,0v-15.7A1.88,1.88,0,0,1,213.22,143Z" transform="translate(13.82 -18.65) rotate(4.91)"/><path class="cls-2" d="M251.08,146.22h22a1.88,1.88,0,0,1,1.88,1.88v15.7a0,0,0,0,1,0,0H249.2a0,0,0,0,1,0,0V148.1A1.88,1.88,0,0,1,251.08,146.22Z" transform="translate(14.24 -21.88) rotate(4.91)"/><rect class="cls-15" x="229.38" y="145.33" width="6.33" height="12.66" transform="translate(13.85 -19.36) rotate(4.91)"/><rect class="cls-15" x="266.83" y="148.55" width="6.33" height="12.66" transform="translate(14.26 -22.56) rotate(4.91)"/><path class="cls-5" d="M285.64,162.18l-6.18,71.93-115.88-10,6.18-71.92a4.55,4.55,0,0,1,4.93-4.14l106.81,9.18A4.54,4.54,0,0,1,285.64,162.18Z"/><g class="cls-25"><path class="cls-14" d="M285.64,162.18l-6.18,71.93-115.88-10,6.18-71.92a4.55,4.55,0,0,1,4.93-4.14l106.81,9.18A4.54,4.54,0,0,1,285.64,162.18Z"/></g><path class="cls-7" d="M285.64,162.18l-6.18,71.93-115.88-10,6.18-71.92a4.55,4.55,0,0,1,4.93-4.14l106.81,9.18A4.54,4.54,0,0,1,285.64,162.18Z"/><path class="cls-2" d="M285.64,162.18l-6.18,71.93-86-7.4,6.18-71.92a4.54,4.54,0,0,1,4.92-4.14l76.93,6.61A4.54,4.54,0,0,1,285.64,162.18Z"/><path class="cls-15" d="M279.61,164.24l-73.51-6.32a1.88,1.88,0,0,1-1.71-2h0a1.88,1.88,0,0,1,2-1.71l73.51,6.32a1.88,1.88,0,0,1,1.71,2h0A1.87,1.87,0,0,1,279.61,164.24Z"/><path class="cls-20" d="M337.25,324.6s-5.54-4-17-3.16c0,0-.83,13.75-2.39,17.75s-9.79,10.93-11.31,12.12-1.53,5.34-1.53,5.34h34.81A109.61,109.61,0,0,0,337.05,339Z"/><g class="cls-26"><path class="cls-22" d="M337.25,324.6s-5.54-4-17-3.16c0,0-.83,13.75-2.39,17.75s-9.79,10.93-11.31,12.12-1.53,5.34-1.53,5.34h34.81A109.61,109.61,0,0,0,337.05,339Z"/></g><path class="cls-7" d="M337.25,324.6s-5.54-4-17-3.16c0,0-.83,13.75-2.39,17.75s-9.79,10.93-11.31,12.12-1.53,5.34-1.53,5.34h34.81A109.61,109.61,0,0,0,337.05,339Z"/><path class="cls-7" d="M330.06,326.38s-.82,12.66-2.78,16a23.13,23.13,0,0,1-3.86,5"/><path class="cls-2" d="M322.42,349.13s-1.75,2.18-3.7,2.47-12.18-.29-12.18-.29l4.17-3.62S319.25,346.26,322.42,349.13Z"/><path class="cls-7" d="M326.08,346.16s-7.43-4.26-12.72-1"/><path class="cls-7" d="M327.87,343.27s-5.19-4-11.3-1.83"/><path class="cls-7" d="M330.06,338.86s-5.57-4.34-11.45-1.58"/><path class="cls-7" d="M330.82,333.35s-6.76-3.64-11.69-.88"/><path class="cls-2" d="M339.82,356.65v2.57h-4s-3.43-2-6.69,0H310.35a13.67,13.67,0,0,1-5.74-1.29l.4-1.28Z"/><path class="cls-2" d="M334.83,323.81l-.89,5.61s-10.45-3.39-16.22-1.19v-6.9S328.47,317.55,334.83,323.81Z"/><path class="cls-27" d="M346.13,184s-22.21,4.35-44-2.71A63,63,0,0,1,288,174.78s.06-1.4.1-3.69c.18-8.94.13-31.43-4.58-37-3-3.51-5.35-25.21.44-36.18l17.71-14.24c24.52,4.79,29.7,11.28,33.75,25.28.75,2.56,1.45,5.37,2.23,8.47.85,3.38,1.65,7.51,2.41,12.05C343.74,151.81,346.13,184,346.13,184Z"/><g class="cls-28"><path class="cls-12" d="M340.06,129.43l-10,44.67s-14.45,4-27.92,7.21A63,63,0,0,1,288,174.78s.06-1.4.1-3.69c12.1-6.19,29.76-15.29,29.62-15.72-.23-.67,0-24,0-24s15.95-3.71,17.7-22.45c.75,2.56,1.45,5.37,2.23,8.47C338.5,120.76,339.3,124.89,340.06,129.43Z"/></g><path class="cls-7" d="M346.13,184s-22.21,4.35-44-2.71A63,63,0,0,1,288,174.78s.06-1.4.1-3.69c.18-8.94.13-31.43-4.58-37-3-3.51-5.35-25.21.44-36.18l17.71-14.24c24.52,4.79,29.7,11.28,33.75,25.28.75,2.56,1.45,5.37,2.23,8.47.85,3.38,1.65,7.51,2.41,12.05C343.74,151.81,346.13,184,346.13,184Z"/><path class="cls-3" d="M302.47,65s-7.82,11.2,2.58,19.94c0,0-12.63,14.16-16.78,12.21-1.75-.82,0-5.93,0-5.93L281,77.67Z"/><path class="cls-3" d="M299.9,70.74c2.45-10.67,1.27-26.56-13.67-25.15-10.48,1-18,6.8-15,20.86,1.23,5.93,2.24,14.33,7.67,21.91,1.51,2.1,17.31-5.33,16.36-11.34"/><path class="cls-7" d="M278.51,64.12a7.26,7.26,0,0,1,6.49.63"/><path class="cls-7" d="M271,65.43a1.88,1.88,0,0,1,2.25-1"/><path class="cls-3" d="M274.73,67.65s-3.08,5.61-3.08,6.41,3.78,1.07,3.78,1.07"/><path class="cls-9" d="M281.35,68.81c0,.61-.27,1.11-.65,1.13s-.7-.48-.72-1.09.28-1.11.66-1.12S281.34,68.2,281.35,68.81Z"/><path class="cls-7" d="M277,79.21s5.92-1.11,7-3.19"/><path class="cls-9" d="M271,56.82l4.6-1.34s6.45-3,7.82-2.58,4.15,4.69,4.07,7.13c0,0,4.33,3.82,4.88,9.36l1.33-.6s-.08-5,2.77-4.87,4.12,3.53,3.92,4.6S297.05,74,297.05,74s7.11-1.06,7.34-15-15.05-16.31-22.48-15.7a97.84,97.84,0,0,1-11.31.41l.42,4-3,.79,2.27,2.77-2.48,1.13Z"/><path class="cls-19" d="M296.71,208.8s18.11,4.79,23,18.27"/><path class="cls-19" d="M305,216s-9.79,16.29-24.76,24.75"/><path class="cls-19" d="M291.26,307.65s5.55-1.25,7.07-3.41"/><path class="cls-19" d="M322.22,309.72s5.44-2.82,10.85,0"/><path class="cls-19" d="M339.82,233.88s-9.12,23.65-13.74,25.84"/><path class="cls-19" d="M299.85,196.84c.24,2.57,11,14.48,19.87,19.2"/><path class="cls-19" d="M309,186.79a16.53,16.53,0,0,1,.76,10.05,15.49,15.49,0,0,0,0,8.86"/><path class="cls-7" d="M289.41,137.61s16.84,21.78,34.92,28.93"/><path class="cls-7" d="M306.87,102.4s-.05,14.81,10.63,21.49"/><path class="cls-3" d="M312.88,124c-2.26,2.22.21,30.08.21,30.08s-13.14,5.14-17.24,8.45-23.59,10.91-23.59,10.91-3,10.22.75,10.57,42.47-12.85,51.32-17.48c0,0,5.77-34,5.73-42.65"/><path class="cls-3" d="M273.8,172.84c-1.8-.34-5-1.52-6.68-1.13s-4.74,2.25-7.91,3-1.84,2,0,2.37a12.43,12.43,0,0,0,4.09,0l-2.56,2.51a39.93,39.93,0,0,1-4.56,2.11c-.92,0-4.22.89-4,2.29s2.11,1.24,4.22,1.32c0,0-3.36.67-3,2.58.23,1.31,4,.14,5.93.14,0,0-1.58,1.71-.39,2.24s3.79-.79,3.79-.79-.1,1.42,1.09,1.56,4.15-1,6.16-2.22a54.85,54.85,0,0,0,5.71-4.22,9.48,9.48,0,0,1,2.58-1.68"/><path class="cls-7" d="M256.44,185.35a22.88,22.88,0,0,0,2.77-.32c.79-.2,1.59-.46,1.59-.46"/><path class="cls-7" d="M259.34,188.07a9.56,9.56,0,0,0,3.43-1.19"/><path class="cls-7" d="M262.74,189.52a5.86,5.86,0,0,0,2.51-.93"/><path class="cls-7" d="M261.06,180.35s-.73,1.65,0,2.57,1.58,1,1.71,2,1.85,1,2.48,1.65,1.09,1.9,3.06,2"/><path class="cls-4" d="M312.05,95.12c-6.82,15.41,0,36.79,0,36.79s16.47,5.6,18,3.19,4.31-14.23,4.77-19.69"/><path class="cls-7" d="M330.06,117.12s-7,9.63-12.56,9.76"/></g><g id="Character_1" data-name="Character 1"><path class="cls-9" d="M84.48,246.3a17.07,17.07,0,0,1,12.64-1.58c7.32,1.85,26.31,29,28.95,31.65s7.58,4,12.13,8.79c7.2,7.51,17.67,14.15,18.72,14.15s1.91-.66,3.23-.92,11.54-1.19,11.54-1.19,3.43.76,0,2.23-3.16,2.78-3.16,2.78-.69,1.11.69,2.17,2.19.48,4.15,3.27-2.78,1.21-2.78,1.21,1.06,3-1.05,2.7-.27,2.93-3.69,2.49-10.77-5.07-12.62-9.92c0,0-29.93-14.31-34.42-18s-23.32-23.48-24.65-23.74"/><path class="cls-5" d="M162.79,273.1h22a1.88,1.88,0,0,1,1.88,1.88v15.7a0,0,0,0,1,0,0H160.91a0,0,0,0,1,0,0V275A1.88,1.88,0,0,1,162.79,273.1Z"/><g class="cls-29"><path class="cls-14" d="M162.79,273.1h22a1.88,1.88,0,0,1,1.88,1.88v15.7a0,0,0,0,1,0,0H160.91a0,0,0,0,1,0,0V275A1.88,1.88,0,0,1,162.79,273.1Z"/><rect class="cls-15" x="178.91" y="274.76" width="6.33" height="12.66"/></g><path class="cls-7" d="M162.79,273.1h22a1.88,1.88,0,0,1,1.88,1.88v15.7a0,0,0,0,1,0,0H160.91a0,0,0,0,1,0,0V275A1.88,1.88,0,0,1,162.79,273.1Z"/><path class="cls-5" d="M200.79,273.1h22a1.88,1.88,0,0,1,1.88,1.88v15.7a0,0,0,0,1,0,0H198.91a0,0,0,0,1,0,0V275A1.88,1.88,0,0,1,200.79,273.1Z"/><g class="cls-30"><path class="cls-14" d="M200.79,273.1h22a1.88,1.88,0,0,1,1.88,1.88v15.7a0,0,0,0,1,0,0H198.91a0,0,0,0,1,0,0V275A1.88,1.88,0,0,1,200.79,273.1Z"/><rect class="cls-15" x="218.99" y="274.76" width="3.82" height="12.66"/></g><path class="cls-7" d="M200.79,273.1h22a1.88,1.88,0,0,1,1.88,1.88v15.7a0,0,0,0,1,0,0H198.91a0,0,0,0,1,0,0V275A1.88,1.88,0,0,1,200.79,273.1Z"/><path class="cls-2" d="M192.79,273.1h22a1.88,1.88,0,0,1,1.88,1.88v15.7a0,0,0,0,1,0,0H190.91a0,0,0,0,1,0,0V275A1.88,1.88,0,0,1,192.79,273.1Z"/><path class="cls-2" d="M230.79,273.1h22a1.88,1.88,0,0,1,1.88,1.88v15.7a0,0,0,0,1,0,0H228.91a0,0,0,0,1,0,0V275A1.88,1.88,0,0,1,230.79,273.1Z"/><rect class="cls-15" x="208.91" y="274.76" width="6.33" height="12.66"/><rect class="cls-15" x="246.49" y="274.76" width="6.33" height="12.66"/><path class="cls-5" d="M265.87,287v72.19H149.56V287a4.55,4.55,0,0,1,4.55-4.55H261.32A4.55,4.55,0,0,1,265.87,287Z"/><g class="cls-31"><path class="cls-14" d="M265.87,287v72.19H149.56V287a4.55,4.55,0,0,1,4.55-4.55H261.32A4.55,4.55,0,0,1,265.87,287Z"/></g><path class="cls-7" d="M265.87,287v72.19H149.56V287a4.55,4.55,0,0,1,4.55-4.55H261.32A4.55,4.55,0,0,1,265.87,287Z"/><path class="cls-2" d="M265.87,287v72.19H179.56V287a4.55,4.55,0,0,1,4.55-4.55h77.21A4.55,4.55,0,0,1,265.87,287Z"/><path class="cls-15" d="M260,289.59H186.26a1.88,1.88,0,0,1-1.88-1.88h0a1.88,1.88,0,0,1,1.88-1.88H260a1.89,1.89,0,0,1,1.88,1.88h0A1.88,1.88,0,0,1,260,289.59Z"/><path class="cls-18" d="M123.43,359.21c-6,0-14.43-3.86-24.14-7.94-10.07-4.24-21.54-8.72-33.18-9.39-4.34-.25-1.71,17.33-1.71,17.33H54.9s-9.36-12.52-10.42-23.73c0,0,7.66-4.73,9.5-5a16.76,16.76,0,0,1,1.91-.09c2.06,0,4.81.09,4.81.09h0c-.44-.26-7.45-4.48-11.32-8.77-3.19-3.54-4.65-9.13-4.76-12.47a60.54,60.54,0,0,1,.74-6.6l49.91.83s.54.38,1.5,1.09c5.79,4.22,27,19.94,37.53,31.79,3.42,3.83,5.73,7.25,6.07,9.75C141.93,357.63,132.5,359.21,123.43,359.21Z"/><path class="cls-9" d="M134.28,336.33,110,341.88a35.81,35.81,0,0,0-10.71,9.39c-10.07-4.24-21.54-8.72-33.18-9.39-4.34-.25-1.71,17.33-1.71,17.33H54.9s-9.36-12.52-10.42-23.73c0,0,8.84,12.6,11,19,0,0,3.43-11.84,9-16.59a45.66,45.66,0,0,0-8.51-7.47c2.06,0,4.81.09,4.81.09h0c-.44-.26-7.45-4.48-11.32-8.77-3.19-3.54-4.48-9.14-4.76-12.47-.13-1.64.06-6.6.06-6.6s37.23,5.31,52.09,1.92C102.54,308.76,123.7,324.48,134.28,336.33Z"/><path class="cls-7" d="M95.26,335.48s19.78,9.91,25,13.79,6.85,2.83,6.85,2.83"/><path class="cls-7" d="M49.37,334.43s4.74,7.25,5,9.43"/><path class="cls-9" d="M128.92,195.27s10.56-4.58,9.57,14.9,2.57,20.48,2.57,20.48-26.51,10.88-33.23,1.58S107.49,197.48,128.92,195.27Z"/><path class="cls-3" d="M127.43,230.65s-10.9,5.14-11.89,9.89-14.63-2.4-14.63-2.4l9.89-14.22Z"/><path class="cls-18" d="M56,282.81c-25,31.84-4.71,47.2,23.63,44.66l-5.68,9,14.25,2.47s10.94-7.14,25.84-14.77c25.36-13,35.6-12.22,33-25.23s-33.69-21.45-64.84-7.74C82.15,291.17,65.22,271.07,56,282.81Z"/><path class="cls-3" d="M64.71,352.1s6.5-18,9.23-19,12.94,2.9,14.25,5.8c0,0,3.47-5.32,4.9-3.06s-.63,6,0,8.86,7.65,6.86,10.47,7.39,4.4,2.11,4.4,3.69v3.43H64.71A9,9,0,0,1,64.71,352.1Z"/><path class="cls-7" d="M93.09,341.88s-5.74,2.83-7.83,2,1.07,4.75,1.86,5.28,6-1.85,6-1.85"/><path class="cls-7" d="M70.12,338.91s7.77.15,10.15,3"/><path class="cls-7" d="M64.71,352.1S77.1,355,78.16,355a30.47,30.47,0,0,0,5-1.45s3.39,1.71,5.65,2.77,17,0,17,0"/><path class="cls-7" d="M79.62,327.47c11.85-1.28,34.83-15.87,42.79-20.94s10.08-3.75,10.08-3.75"/><path class="cls-2" d="M44.66,302.62l1.89-14.35,4.57-3.44c7.38-17.93,40.86-51.42,50-51.31,13.72.16,16.14,14.55,17.83,30.3S99.26,277.2,99.26,277.2v3.95l-12.15,6.29,7.36-.23S73.3,307.78,44.66,302.62Z"/><path class="cls-3" d="M104,205.74c2.87-9,16-11.4,20.72-9.93a16.72,16.72,0,0,1,8.91,8.13c1.2,2.59-1.31,7.17.48,9.84,2.56,3.83,2.35,11.91,1.42,17-.49,2.7-11.73,4.3-20.91-2C104.76,222,101.23,214.45,104,205.74Z"/><path class="cls-9" d="M117.27,193.18s11.56-1.89,11.64,1.08c.52,19.73-11.31,23.87-11.31,23.87s-4.83-3.84-5.92-1.21,1.71,9.94,5.12,10.09a7.84,7.84,0,0,0-.14,8.24s-19.57,3.27-21.19-5.8a73.35,73.35,0,0,0,1.62-9.58C98.36,207.16,95.38,198.61,117.27,193.18Z"/><path class="cls-3" d="M132.71,213.28c2.42,2.17,4.15,2.17,4.12,2.95-.09,2.43-3,3.64-3,3.64"/><path class="cls-7" d="M133.76,223.92a8.84,8.84,0,0,1-5.26.13"/><path class="cls-9" d="M127.36,201.17s7.68-2.23,6.27,10.25c0,0,3.21-4.35,3.2-9.24,0-8.46-11.33-6.77-11.33-6.77l1.47,6"/><path class="cls-7" d="M134.34,207.28a2.55,2.55,0,0,0-2-.37"/><path class="cls-7" d="M129.16,207.15s-4.13.23-5.91,3"/><path class="cls-9" d="M128.17,213.71c.07.66-.22,1.23-.63,1.27s-.79-.47-.85-1.13.22-1.23.63-1.27S128.11,213.05,128.17,213.71Z"/><path class="cls-7" d="M80.27,330.47s9.2,1,11.2,5"/><path class="cls-3" d="M103.56,240.27a17.07,17.07,0,0,1,12.64-1.58c7.32,1.85,26.31,29,29,31.65s7.58,4,12.13,8.79c7.2,7.51,17.67,14.15,18.72,14.15s1.92-.66,3.23-.92,11.54-1.19,11.54-1.19,3.43.77,0,2.23-3.16,2.79-3.16,2.79-.69,1.11.69,2.16,2.19.48,4.15,3.27-2.78,1.21-2.78,1.21,1.06,3-1,2.7-.26,2.93-3.69,2.49-10.77-5.07-12.62-9.92c0,0-29.93-14.31-34.42-18s-23.31-23.48-24.64-23.74"/><path class="cls-2" d="M99.26,237.37s14.76-4,19.9-1.05,14.91,16.35,14.91,16.35-11.89,10.65-15.57,9.68-14.94-2.56-14.94-2.56"/><path class="cls-7" d="M112.05,261.09S106.7,264,104.73,264"/><path class="cls-7" d="M103.56,246.34c.44.79.29,9.44,9.69,12.13"/><path class="cls-7" d="M53.37,285.11s20,3.43,26.9-2.64"/><path class="cls-7" d="M87.11,287.44s-5-.88-6.84,1.69-11.87,4.95-11.87,4.95"/><path class="cls-7" d="M46.91,306.53S44,319,56.34,324.56"/><path class="cls-7" d="M53.37,307.39s.06,6.14,2,9.5l6.13,2,6.86-3.82s-1.45-7.85-1.58-9.44"/></g></g></svg>